<?xml version="1.0" standalone="no"?>
<!DOCTYPE svg PUBLIC "-//W3C//DTD SVG 1.1//EN" "http://www.w3.org/Graphics/SVG/1.1/DTD/svg11.dtd" >
<svg xmlns="http://www.w3.org/2000/svg">
<metadata></metadata>
<defs>
<font id="knockout46_flyweight" horiz-adv-x="409" >
<font-face units-per-em="2048" ascent="1638" descent="-410" />
<missing-glyph horiz-adv-x="186" />
<glyph unicode="&#xfb01;" horiz-adv-x="462" d="M14 858v125h54v133q0 126 38.5 187t129.5 61h14v-125h-17q-53 0 -53 -78v-178h64v-125h-60v-858h-116v858h-54zM299 0v983h117v-983h-117zM305 1096v159h105v-159h-105z" />
<glyph unicode="&#xfb02;" horiz-adv-x="462" d="M14 858v125h54v133q0 126 38.5 187t129.5 61h14v-125h-17q-53 0 -53 -78v-178h64v-125h-60v-858h-116v858h-54zM299 0v1364h117v-1364h-117z" />
<glyph unicode="&#xfb03;" horiz-adv-x="710" d="M16 858v123h52v135q0 126 39 187t129 61h14v-123h-19q-53 0 -53 -80v-180h64v-123h-60v-858h-114v858h-52zM266 858v123h51v135q0 126 39 187t129 61h15v-123h-19q-53 0 -53 -80v-180h64v-123h-60v-858h-115v858h-51zM549 0v981h115v-981h-115zM555 1096v159h102v-159 h-102z" />
<glyph unicode="&#xfb04;" horiz-adv-x="710" d="M16 858v123h52v135q0 126 39 187t129 61h14v-123h-19q-53 0 -53 -80v-180h64v-123h-60v-858h-114v858h-52zM266 858v123h51v135q0 126 39 187t129 61h15v-123h-19q-53 0 -53 -80v-180h64v-123h-60v-858h-115v858h-51zM549 0v1364h115v-1364h-115z" />
<glyph horiz-adv-x="0" />
<glyph horiz-adv-x="682" />
<glyph unicode=" "  horiz-adv-x="186" />
<glyph unicode="&#x09;" horiz-adv-x="186" />
<glyph unicode="&#xa0;" horiz-adv-x="186" />
<glyph unicode="!" horiz-adv-x="231" d="M53 772v592h125v-592l-43 -448h-39zM59 0v197h111v-197h-111z" />
<glyph unicode="&#x22;" horiz-adv-x="292" d="M18 981l43 383h86l-69 -383h-60zM141 981l56 383h86l-78 -383h-64z" />
<glyph unicode="#" horiz-adv-x="598" d="M-6 418v71h145l43 385h-149v72h157l50 418h75l-47 -418h123l47 418h76l-47 -418h135v-72h-143l-45 -385h149v-71h-157l-48 -418h-75l47 418h-123l-47 -418h-76l47 418h-137zM215 489h123l45 385h-123z" />
<glyph unicode="$" horiz-adv-x="473" d="M41 225v174h123v-190q0 -43 17 -68.5t50 -25.5q74 0 74 94q0 99 -25.5 193.5t-82.5 218.5q-152 341 -152 489q0 213 133 258v125h117v-119q64 -15 99.5 -75.5t35.5 -159.5v-191h-123v201q0 90 -57 90q-70 0 -70 -84q0 -62 5.5 -109t25.5 -106t33.5 -91t54.5 -122 q65 -150 101 -266.5t36 -214.5q0 -208 -141 -254v-123h-117v123q-67 19 -102 79t-35 154z" />
<glyph unicode="%" horiz-adv-x="712" d="M35 856v367q0 73 37 115t94 42q58 0 94.5 -42t36.5 -115v-367q0 -72 -36.5 -115t-94.5 -43q-57 0 -94 43t-37 115zM49 0l567 1395l48 -35l-568 -1397zM125 836q0 -20 12 -34t29 -14q18 0 29.5 13.5t11.5 34.5v407q0 21 -11.5 34t-29.5 13q-17 0 -29 -13.5t-12 -33.5v-407 zM416 135v369q0 72 36.5 113.5t94.5 41.5q57 0 93 -41.5t36 -113.5v-369q0 -72 -36 -115t-93 -43q-58 0 -94.5 43t-36.5 115zM506 115q0 -20 11 -32.5t30 -12.5q18 0 29.5 12.5t11.5 32.5v407q0 21 -11.5 34t-29.5 13q-19 0 -30 -12.5t-11 -34.5v-407z" />
<glyph unicode="&#x26;" horiz-adv-x="645" d="M35 297q0 242 164 440q-62 200 -62 340q0 142 52 222.5t145 80.5q85 0 125.5 -73.5t40.5 -196.5q0 -204 -160 -416q29 -239 57 -350q26 68 43 165.5t17 176.5h116q-3 -119 -35.5 -262t-84.5 -234q10 -61 53 -61t43 70v77h78v-88q0 -101 -30.5 -152.5t-86.5 -51.5 q-81 0 -125 82q-53 -82 -147 -82q-91 0 -147 86.5t-56 226.5zM168 322q0 -91 25.5 -140t68.5 -49q38 0 55 39q-24 61 -47 177t-34 218q-30 -44 -49 -109.5t-19 -135.5zM266 1098q0 -75 35 -254q34 56 54 130t20 130q0 65 -11 94t-40 29q-58 0 -58 -129z" />
<glyph unicode="'" horiz-adv-x="212" d="M33 981l63 383h111l-103 -383h-71z" />
<glyph unicode="(" horiz-adv-x="356" d="M98 635q0 178 14.5 318.5t43 241.5t62 171t79.5 135l33 -22q-67 -106 -94 -285.5t-27 -558.5t27 -558.5t94 -285.5l-33 -22q-46 65 -79.5 135t-62 171t-43 241.5t-14.5 318.5z" />
<glyph unicode=")" horiz-adv-x="356" d="M27 -209q66 106 93 285t27 559t-27 559t-93 285l32 22q46 -65 79.5 -135t62 -171t43 -241.5t14.5 -318.5t-14.5 -318.5t-43 -241.5t-62 -171t-79.5 -135z" />
<glyph unicode="*" horiz-adv-x="372" d="M25 1257l16 29q5 8 22 0q55 -31 107 -74q-10 72 -10 131q0 19 10 19h37q10 0 10 -19q0 -77 -10 -131q58 48 108 74q15 10 21 0l16 -29q4 -6 -10 -16q-61 -37 -119 -57q40 -15 117 -58q15 -8 12 -18l-16 -27q-6 -9 -23 0q-54 33 -108 74q10 -56 10 -131q0 -16 -10 -16h-33 q-10 0 -10 16q0 75 10 131q-58 -47 -109 -74q-14 -9 -20 0l-16 27q-5 8 10 18q94 49 119 58q-73 25 -119 57q-15 7 -12 16z" />
<glyph unicode="+" horiz-adv-x="456" d="M53 635v110h119v132h113v-132h118v-110h-118v-131h-113v131h-119z" />
<glyph unicode="," horiz-adv-x="188" d="M37 0v205h115v-187q0 -71 -30 -115t-85 -44v41q53 0 53 100h-53z" />
<glyph unicode="-" horiz-adv-x="270" d="M16 586v121h238v-121h-238z" />
<glyph unicode="." horiz-adv-x="188" d="M37 0v205h115v-205h-115z" />
<glyph unicode="/" horiz-adv-x="370" d="M-39 -131l354 1624h82l-354 -1624h-82z" />
<glyph unicode="0" horiz-adv-x="495" d="M53 213v938q0 102 55.5 165.5t139.5 63.5q85 0 139.5 -63.5t54.5 -165.5v-938q0 -102 -54.5 -165.5t-139.5 -63.5q-84 0 -139.5 63.5t-55.5 165.5zM190 190q0 -26 16.5 -44.5t41.5 -18.5t41 18t16 45v984q0 27 -16 45t-41 18t-41.5 -18.5t-16.5 -44.5v-984z" />
<glyph unicode="1" horiz-adv-x="299" d="M82 0v1298q63 0 63 66h72v-1364h-135z" />
<glyph unicode="2" horiz-adv-x="413" d="M16 0v37q0 109 29 226t129 405q56 158 77 255t21 226q0 88 -61 88q-25 0 -42 -20.5t-17 -53.5v-221h-121v211q0 94 47.5 160.5t128.5 66.5q188 0 188 -268q0 -126 -27.5 -240t-84.5 -280q-72 -199 -98.5 -292t-26.5 -157h225v-143h-367z" />
<glyph unicode="3" horiz-adv-x="438" d="M35 199v186h121v-192q0 -60 49 -60q26 0 39.5 15t13.5 40v398q0 17 -10 27t-25 10h-73v129h73q15 0 25 10.5t10 28.5v380q0 27 -13.5 43.5t-39.5 16.5q-49 0 -49 -62v-192h-121v186q0 96 44.5 156.5t129.5 60.5q81 0 130.5 -62t49.5 -157v-348q0 -80 -78 -125 q78 -45 78 -125v-360q0 -94 -50 -156.5t-130 -62.5q-83 0 -128.5 60.5t-45.5 154.5z" />
<glyph unicode="4" horiz-adv-x="419" d="M12 268v117l228 979h108v-967h55v-129h-55v-268h-127v268h-209zM131 397h90v457z" />
<glyph unicode="5" horiz-adv-x="436" d="M45 694l23 670h344q0 -88 -21.5 -116.5t-66.5 -28.5h-136l-14 -400q37 49 111 49q52 0 84 -43t32 -108v-514q0 -96 -51 -157.5t-135 -61.5q-79 0 -122.5 62t-43.5 153v178h119v-182q0 -27 14 -44.5t35 -17.5q23 0 38 17t15 43v503q0 26 -13 41t-34 15q-23 0 -37 -20 t-14 -50z" />
<glyph unicode="6" horiz-adv-x="464" d="M51 209v944q0 98 51.5 162.5t133.5 64.5q81 0 127.5 -63.5t46.5 -153.5v-194h-117v200q0 28 -14.5 45t-40.5 17t-41 -16.5t-15 -43.5v-397q40 49 113 49q57 0 91 -41.5t34 -107.5v-465q0 -98 -51.5 -161.5t-135.5 -63.5q-82 0 -132 63.5t-50 161.5zM182 188 q0 -24 14 -39.5t37 -15.5q26 0 41 15.5t15 39.5v457q0 22 -15 36.5t-41 14.5q-23 0 -37 -14.5t-14 -36.5v-457z" />
<glyph unicode="7" horiz-adv-x="411" d="M31 1217v147h366v-70q-93 -405 -138 -690.5t-62 -603.5h-146q49 545 213 1217h-233z" />
<glyph unicode="8" horiz-adv-x="473" d="M51 203v336q0 99 68 147q-68 48 -68 148v327q0 95 51.5 157t135.5 62q82 0 133 -62t51 -157v-327q0 -100 -68 -148q68 -48 68 -147v-336q0 -96 -51 -157.5t-133 -61.5q-84 0 -135.5 61.5t-51.5 157.5zM182 193q0 -26 15.5 -43t40.5 -17t40 17t15 43v385q0 23 -15 38 t-40 15t-40.5 -15t-15.5 -38v-385zM182 797q0 -22 16 -38t40 -16t39.5 16t15.5 38v374q0 26 -15 43t-40 17t-40.5 -17t-15.5 -43v-374z" />
<glyph unicode="9" horiz-adv-x="471" d="M51 199v188h119v-190q0 -28 16 -46t43 -18q29 0 44.5 17t15.5 43v391q-43 -49 -115 -49q-56 0 -89.5 42.5t-33.5 108.5v467q0 98 51 162.5t134 64.5q82 0 133 -64.5t51 -162.5v-944q0 -98 -52.5 -161.5t-136.5 -63.5q-80 0 -130 63.5t-50 151.5zM182 711q0 -22 15 -37 t39 -15t38.5 15t14.5 37v465q0 24 -14.5 39.5t-38.5 15.5t-39 -15.5t-15 -39.5v-465z" />
<glyph unicode=":" horiz-adv-x="188" d="M37 0v205h115v-205h-115zM37 657v205h115v-205h-115z" />
<glyph unicode=";" horiz-adv-x="188" d="M37 0v205h115v-187q0 -71 -30 -115t-85 -44v41q53 0 53 100h-53zM37 657v205h115v-205h-115z" />
<glyph unicode="&#x3c;" horiz-adv-x="698" d="M104 666v34l463 306v-132l-291 -190l291 -195v-131z" />
<glyph unicode="=" horiz-adv-x="395" d="M23 522v115h350v-115h-350zM23 743v115h350v-115h-350z" />
<glyph unicode="&#x3e;" horiz-adv-x="698" d="M131 360v132l291 190l-291 195v131l463 -308v-34z" />
<glyph unicode="?" horiz-adv-x="395" d="M18 961v194q0 102 45 163.5t130 61.5q182 0 182 -274q0 -83 -28 -212.5t-77 -248.5q-57 -145 -57 -299h-96q0 93 18.5 190t71.5 279q21 73 31 154t10 127q0 76 -13.5 105.5t-44.5 29.5q-57 0 -57 -82v-188h-115zM111 0v197h110v-197h-110z" />
<glyph unicode="@" horiz-adv-x="667" d="M29 473q0 231 94.5 377.5t226.5 146.5q94 0 162.5 -65t99.5 -161t31 -206q0 -139 -49.5 -234t-132.5 -95q-42 0 -65.5 28t-20.5 84q-13 -42 -42 -70t-57 -28q-42 0 -69 42t-27 122q0 115 49.5 208t116.5 93q24 0 40 -17t17 -49l15 62h82l-60 -289q-24 -123 33 -123 q48 0 74 74.5t26 197.5q0 163 -63.5 261t-159.5 98q-104 0 -178 -131.5t-74 -325.5t72.5 -308t179.5 -114q108 0 166 72l35 -45q-69 -92 -201 -92q-136 0 -228.5 126t-92.5 361zM262 420q0 -88 41 -88q39 0 59 104l27 146q-3 63 -31 63q-35 0 -65.5 -73.5t-30.5 -151.5z" />
<glyph unicode="A" horiz-adv-x="444" d="M8 0l137 1364h154l135 -1364h-147l-15 262h-114l-23 -262h-127zM170 410h92l-39 616z" />
<glyph unicode="B" horiz-adv-x="479" d="M53 0v1364h207q33 0 62.5 -9.5t57 -32t44 -67t16.5 -106.5v-299q0 -111 -80 -156q80 -48 80 -155v-324q0 -62 -16.5 -106.5t-44 -67t-57 -32t-62.5 -9.5h-207zM197 143h59q45 0 45 68v344q0 34 -14 53t-37 19h-53v-484zM197 758h53q51 0 51 71v324q0 66 -45 66h-59v-461z " />
<glyph unicode="C" horiz-adv-x="462" d="M41 217v930q0 101 59 167t144 66t135.5 -64.5t50.5 -168.5v-260h-121v274q0 31 -15.5 50.5t-45.5 19.5q-31 0 -47.5 -19.5t-16.5 -50.5v-958q0 -31 16.5 -50.5t47.5 -19.5q30 0 45.5 19.5t15.5 50.5v276h121v-262q0 -105 -50 -169t-136 -64q-85 0 -144 65.5t-59 167.5z " />
<glyph unicode="D" horiz-adv-x="493" d="M53 0v1364h211q187 0 187 -242v-880q0 -242 -187 -242h-211zM197 143h59q29 0 41 20t12 66v904q0 46 -12 66t-41 20h-59v-1076z" />
<glyph unicode="E" d="M53 0v1364h330v-141h-188v-451h133v-141h-133v-490h188v-141h-330z" />
<glyph unicode="F" horiz-adv-x="393" d="M53 0v1364h318v-141h-176v-457h141v-139h-141v-627h-142z" />
<glyph unicode="G" horiz-adv-x="479" d="M41 217v930q0 101 58 167t143 66q83 0 136.5 -65t53.5 -168v-258h-127v276q0 28 -17 47t-46 19q-27 0 -43.5 -19t-16.5 -47v-975q0 -33 15.5 -52t44.5 -19q61 0 61 71v347h-53v129h194v-666h-73l-27 59q-34 -75 -125 -75q-75 0 -126.5 60t-51.5 173z" />
<glyph unicode="H" horiz-adv-x="507" d="M53 0v1364h144v-619h116v619h142v-1364h-142v600h-116v-600h-144z" />
<glyph unicode="I" horiz-adv-x="249" d="M53 0v1364h144v-1364h-144z" />
<glyph unicode="J" horiz-adv-x="448" d="M23 203v340h133v-346q0 -64 53 -64t53 64v1167h141v-1161q0 -98 -52 -158.5t-136 -60.5t-138 61t-54 158z" />
<glyph unicode="K" horiz-adv-x="471" d="M53 0v1364h142v-672l127 672h133l-121 -586l125 -778h-142l-75 578l-47 -226v-352h-142z" />
<glyph unicode="L" horiz-adv-x="391" d="M53 0v1364h142v-1223h180v-141h-322z" />
<glyph unicode="M" horiz-adv-x="684" d="M53 0v1364h195l74 -688l24 -285l25 285l71 688h189v-1364h-135v1059l-19 -262l-88 -797h-110l-84 797l-19 262v-1059h-123z" />
<glyph unicode="N" horiz-adv-x="528" d="M49 0v1364h144l131 -688l30 -199v887h125v-1364h-112l-158 688l-35 197v-885h-125z" />
<glyph unicode="O" horiz-adv-x="493" d="M43 217v930q0 101 59 167t144 66t144 -66t59 -167v-930q0 -102 -59 -167.5t-144 -65.5t-144 65.5t-59 167.5zM186 199q0 -30 15.5 -48t44.5 -18q27 0 43 18t16 48v966q0 29 -16 47.5t-43 18.5q-28 0 -44 -18.5t-16 -47.5v-966z" />
<glyph unicode="P" horiz-adv-x="466" d="M53 0v1364h205q33 0 62.5 -9.5t58 -32t45 -67t16.5 -106.5v-365q0 -62 -16.5 -106.5t-45 -67t-58 -32t-62.5 -9.5h-63v-569h-142zM195 705h61q43 0 43 65v383q0 66 -43 66h-61v-514z" />
<glyph unicode="Q" horiz-adv-x="493" d="M43 217v930q0 101 59 167t144 66t144 -66t59 -167v-930q0 -57 -21 -104q18 -21 68 -21v-92q-26 -16 -66 -16q-48 0 -74 32q-46 -32 -110 -32q-85 0 -144 65.5t-59 167.5zM186 199q0 -30 15.5 -48t44.5 -18q25 0 37 12l-41 39l63 72v909q0 29 -16 47.5t-43 18.5 q-28 0 -44 -18.5t-16 -47.5v-966z" />
<glyph unicode="R" horiz-adv-x="487" d="M53 0v1364h207q33 0 62.5 -9.5t57 -32t44 -67t16.5 -106.5v-334q0 -106 -80 -156q84 -52 84 -155v-330q0 -89 23 -139v-39h-92q-33 0 -51.5 49t-18.5 119v360q0 31 -14.5 50.5t-38.5 19.5h-55v-594h-144zM197 733h53q49 0 49 72v348q0 66 -43 66h-59v-486z" />
<glyph unicode="S" horiz-adv-x="460" d="M27 225v174h129v-190q0 -43 17 -68.5t50 -25.5q72 0 72 94q0 98 -26.5 191.5t-84.5 220.5q-151 328 -151 489q0 124 52 197t157 73q86 0 135 -62.5t49 -178.5v-191h-127v201q0 90 -57 90q-32 0 -51 -21.5t-19 -62.5q0 -76 14 -143t30 -108.5t59 -139.5q10 -24 16 -37 q67 -150 104 -266.5t37 -214.5q0 -61 -13.5 -108.5t-34 -76t-48.5 -46.5t-54 -24.5t-53 -6.5q-95 0 -148.5 63.5t-53.5 177.5z" />
<glyph unicode="T" horiz-adv-x="413" d="M12 1217v147h389v-147h-120v-1217h-142v1217h-127z" />
<glyph unicode="U" horiz-adv-x="487" d="M47 217v1147h141v-1159q0 -72 58 -72q59 0 59 72v1159h135v-1147q0 -103 -56 -168t-140 -65t-140.5 65t-56.5 168z" />
<glyph unicode="V" horiz-adv-x="448" d="M10 1364h146l67 -979l84 979h131l-143 -1364h-145z" />
<glyph unicode="W" horiz-adv-x="661" d="M8 1364h139l52 -928l84 928h110l66 -928l69 928h129l-145 -1364h-123l-65 825l-82 -825h-121z" />
<glyph unicode="X" horiz-adv-x="452" d="M2 0l139 672l-129 692h142l73 -512l86 512h131l-133 -657l129 -707h-139l-80 481l-84 -481h-135z" />
<glyph unicode="Y" horiz-adv-x="442" d="M-2 1364h137l86 -602l86 602h135l-159 -829v-535h-142v535z" />
<glyph unicode="Z" horiz-adv-x="391" d="M8 0v72l225 1145h-213v147h357v-72l-225 -1151h210v-141h-354z" />
<glyph unicode="[" horiz-adv-x="331" d="M111 -203v1676h254v-89h-152v-1499h152v-88h-254z" />
<glyph unicode="\" horiz-adv-x="380" d="M-29 1493h82l355 -1624h-82z" />
<glyph unicode="]" horiz-adv-x="331" d="M-23 -115h152v1499h-152v89h254v-1676h-254v88z" />
<glyph unicode="^" horiz-adv-x="346" d="M8 1145v41q35 0 75 47t56 131h68q16 -84 56 -131t75 -47v-41q-34 -15 -57 -15q-92 0 -111 125q-21 -125 -111 -125q-17 0 -51 15z" />
<glyph unicode="_" horiz-adv-x="454" d="M0 0h455v-121h-455v121z" />
<glyph unicode="`" horiz-adv-x="212" d="M18 1303h111l64 -250h-70z" />
<glyph unicode="a" horiz-adv-x="380" d="M27 199v82q0 102 51.5 184.5t142.5 159.5v170q0 65 -37 65t-37 -65v-117h-104v110q0 92 40.5 149.5t106.5 57.5q64 0 103 -56.5t39 -150.5v-655q0 -40 22 -45v-104h-26q-53 0 -80 71q-12 -32 -37.5 -51.5t-54.5 -19.5q-62 0 -95.5 57t-33.5 158zM139 184q0 -71 39 -71 q20 0 31.5 24.5t11.5 57.5v282q-37 -33 -59.5 -82t-22.5 -94v-117z" />
<glyph unicode="b" horiz-adv-x="405" d="M47 0v1364h117v-449q12 36 37.5 58t54.5 22q48 0 78.5 -44.5t30.5 -114.5v-695q0 -69 -31 -113t-78 -44q-29 0 -54 20t-38 59l-6 -63h-111zM164 172q0 -26 11 -42.5t30 -16.5q20 0 31.5 16t11.5 43v633q0 27 -11.5 43t-31.5 16q-19 0 -30 -16.5t-11 -42.5v-633z" />
<glyph unicode="c" horiz-adv-x="374" d="M41 199v581q0 94 45 154.5t111 60.5q68 0 107.5 -59t39.5 -156v-153h-96v172q0 28 -12.5 44.5t-32.5 16.5q-19 0 -32 -17t-13 -44v-621q0 -27 13 -43t32 -16q20 0 32.5 16t12.5 43v170h96v-149q0 -98 -39.5 -156.5t-107.5 -58.5q-66 0 -111 60t-45 155z" />
<glyph unicode="d" horiz-adv-x="405" d="M41 141v695q0 71 30 115t79 44q61 0 92 -69v438h114v-1364h-102l-12 63q-26 -79 -92 -79q-49 0 -79 43.5t-30 113.5zM158 172q0 -27 11.5 -43t31.5 -16q19 0 30 16.5t11 42.5v633q0 26 -11 42.5t-30 16.5q-20 0 -31.5 -16t-11.5 -43v-633z" />
<glyph unicode="e" horiz-adv-x="385" d="M41 199v579q0 95 46 156t112 61t106.5 -60t40.5 -157v-319h-188v-277q0 -65 45 -65q41 0 41 65v168h102v-151q0 -97 -40.5 -156t-106.5 -59t-112 60t-46 155zM158 569h86v224q0 67 -41 67q-45 0 -45 -67v-224z" />
<glyph unicode="f" horiz-adv-x="251" d="M14 858v125h54v133q0 126 38.5 187t129.5 61h14v-125h-17q-53 0 -53 -78v-178h64v-125h-60v-858h-116v858h-54z" />
<glyph unicode="g" horiz-adv-x="391" d="M31 209q0 50 26 87.5t64 43.5q-78 32 -78 205v233q0 97 44.5 157t111.5 60q10 0 25 -3t20 -3q63 0 63 84h90q4 -25 4 -63q0 -99 -61 -99q-8 0 -31 9q45 -59 45 -150v-233q0 -96 -45 -162t-110 -66q-17 0 -21 4q-17 0 -28 -19.5t-11 -47.5q0 -31 15.5 -50.5t46.5 -19.5 q78 0 123 -49.5t45 -144.5v-140q0 -110 -45 -162.5t-125 -52.5q-76 0 -119 54.5t-43 160.5v123q0 81 53 127q-24 12 -41.5 46.5t-17.5 70.5zM154 -20v-154q0 -28 14 -49t37 -21q25 0 40 21t15 49v154q0 29 -14.5 50t-40.5 21t-38.5 -20t-12.5 -51zM156 500q0 -25 11.5 -41.5 t31.5 -16.5t31.5 16.5t11.5 41.5v303q0 25 -11.5 41t-31.5 16t-31.5 -16t-11.5 -41v-303z" />
<glyph unicode="h" d="M47 0v1364h117v-449q14 37 39 58.5t55 21.5q47 0 77 -44.5t30 -114.5v-836h-117v805q0 27 -11.5 43t-31.5 16q-17 0 -29 -16.5t-12 -42.5v-805h-117z" />
<glyph unicode="i" horiz-adv-x="212" d="M47 0v983h117v-983h-117zM53 1096v159h105v-159h-105z" />
<glyph unicode="j" horiz-adv-x="212" d="M-18 -236h14q51 0 51 78v1141h117v-1096q0 -126 -39 -186.5t-129 -60.5h-14v124zM53 1096v159h105v-159h-105z" />
<glyph unicode="k" horiz-adv-x="387" d="M47 0v1364h119v-860l94 481h111l-95 -448l101 -537h-117l-63 410l-31 -115v-295h-119z" />
<glyph unicode="l" horiz-adv-x="212" d="M47 0v1364h117v-1364h-117z" />
<glyph unicode="m" horiz-adv-x="598" d="M47 0v983h113l4 -70q32 82 98 82q32 0 54 -24.5t34 -63.5q13 40 40.5 64t58.5 24q46 0 75 -42t29 -111v-842h-117v795q0 61 -39 61q-15 0 -26 -17t-11 -44v-795h-118v803q0 27 -11 44t-26 17q-16 0 -28.5 -17t-12.5 -44v-803h-117z" />
<glyph unicode="n" horiz-adv-x="411" d="M47 0v983h111l6 -70q13 40 39 61t55 21q47 0 77 -44.5t30 -114.5v-836h-115v805q0 26 -12 42.5t-31 16.5t-31 -16.5t-12 -42.5v-805h-117z" />
<glyph unicode="o" horiz-adv-x="401" d="M41 199v579q0 95 46.5 156t113.5 61t112 -61t45 -156v-579q0 -95 -45 -155t-112 -60t-113.5 60t-46.5 155zM160 174q0 -55 41 -55q20 0 31.5 15t11.5 40v627q0 27 -11.5 43t-31.5 16q-41 0 -41 -59v-627z" />
<glyph unicode="p" horiz-adv-x="405" d="M47 -354v1337h107l10 -65q29 81 94 81q47 0 77 -44t30 -113v-697q0 -69 -30 -113t-77 -44q-63 0 -94 69v-411h-117zM164 176q0 -25 12 -41t31 -16t30 16t11 41v635q0 26 -11 42.5t-30 16.5t-31 -16.5t-12 -42.5v-635z" />
<glyph unicode="q" horiz-adv-x="405" d="M41 139v697q0 69 31 114t78 45q30 0 54.5 -22t37.5 -62l6 66h108v-1337h-114v419q-12 -36 -36.5 -55.5t-55.5 -19.5q-48 0 -78.5 43t-30.5 112zM158 172q0 -27 11.5 -43t31.5 -16q41 0 41 59v633q0 59 -41 59q-20 0 -31.5 -16t-11.5 -43v-633z" />
<glyph unicode="r" horiz-adv-x="296" d="M47 0v983h111l8 -86q15 46 46.5 72t72.5 26v-159q-66 0 -93.5 -22.5t-27.5 -80.5v-733h-117z" />
<glyph unicode="s" horiz-adv-x="362" d="M29 209v86h104v-115q0 -69 45 -69q53 0 53 73q0 75 -14 121.5t-70 145.5q-38 62 -57 97t-40 98t-21 118q0 107 43 169t110 62q77 0 115.5 -60t38.5 -163v-102h-100v125q0 28 -13.5 46.5t-36.5 18.5q-22 0 -35.5 -20t-13.5 -49q0 -60 21 -113t73 -141q37 -66 55 -101.5 t36 -97t18 -119.5q0 -108 -42 -171.5t-112 -63.5q-76 0 -116.5 57t-40.5 168z" />
<glyph unicode="t" horiz-adv-x="251" d="M12 858v125h62v143l108 45v-188h58v-125h-58v-604q0 -158 13 -254h-105q-27 111 -27 254v604h-51z" />
<glyph unicode="u" d="M45 141v842h115v-811q0 -26 13 -42.5t32 -16.5t30 16.5t11 42.5v811h116v-983h-110l-6 63q-26 -79 -94 -79q-46 0 -76.5 44t-30.5 113z" />
<glyph unicode="v" horiz-adv-x="356" d="M16 983h115l39 -487l12 -203l13 203l34 487h109l-105 -983h-110z" />
<glyph unicode="w" horiz-adv-x="557" d="M16 983h117l33 -469l16 -240l15 240l36 469h97l37 -469l16 -240l16 240l33 469h109l-105 -983h-108l-35 371l-17 231l-16 -231l-35 -371h-108z" />
<glyph unicode="x" horiz-adv-x="356" d="M6 0l105 483l-105 500h117l53 -340l53 340h117l-106 -481l106 -502h-121l-51 332l-53 -332h-115z" />
<glyph unicode="y" horiz-adv-x="352" d="M14 983h115l35 -481l12 -205l12 205l35 481h111l-121 -1096q-16 -143 -49.5 -195t-124.5 -52h-10v124h18q25 0 36.5 18.5t16.5 59.5l19 168z" />
<glyph unicode="z" horiz-adv-x="323" d="M14 0v47l162 805h-147v131h272v-47l-160 -803h150v-133h-277z" />
<glyph unicode="{" horiz-adv-x="397" d="M72 600v70h61q84 0 84 73q0 28 -30.5 106.5t-60.5 179.5t-30 183q0 112 57.5 186.5t163.5 74.5h41v-64h-43q-55 0 -85.5 -56t-30.5 -145q0 -61 27 -146t54 -162t27 -118q0 -58 -26 -93.5t-86 -53.5q60 -18 86 -54t26 -94q0 -41 -27 -118t-54 -162t-27 -146 q0 -89 30.5 -144.5t85.5 -55.5h43v-64h-41q-106 0 -163.5 74t-57.5 186q0 82 30 183t60.5 179.5t30.5 106.5q0 74 -84 74h-61z" />
<glyph unicode="|" horiz-adv-x="186" d="M53 -131v1624h82v-1624h-82z" />
<glyph unicode="}" horiz-adv-x="397" d="M41 -139h43q55 0 86 55.5t31 144.5q0 61 -27.5 146t-54.5 162t-27 118q0 58 26.5 94t86.5 54q-60 18 -86.5 53.5t-26.5 93.5q0 41 27 118t54.5 162t27.5 146q0 89 -31 145t-86 56h-43v64h39q107 0 165 -74.5t58 -186.5q0 -82 -30 -183t-60.5 -179.5t-30.5 -106.5 q0 -73 82 -73h64v-70h-64q-82 0 -82 -74q0 -28 30.5 -106.5t60.5 -179.5t30 -183q0 -112 -57.5 -186t-165.5 -74h-39v64z" />
<glyph unicode="~" horiz-adv-x="325" d="M10 649q0 61 21.5 94t60.5 33q28 0 74 -39t57 -39q25 0 25 29v49h53q14 -27 14 -63q0 -127 -82 -127q-27 0 -73 39t-58 39q-24 0 -24 -29v-49h-53q-15 34 -15 63z" />
<glyph unicode="&#xa1;" horiz-adv-x="231" d="M53 211l43 448h39l43 -448v-592h-125v592zM59 786v197h111v-197h-111z" />
<glyph unicode="&#xa2;" horiz-adv-x="401" d="M51 395v580q0 75 29.5 130t77.5 77v182h96v-182q47 -19 73.5 -74t26.5 -133v-154h-96v172q0 29 -12.5 46.5t-32.5 17.5q-18 0 -30.5 -18t-12.5 -46v-618q0 -28 12.5 -45t30.5 -17q20 0 32.5 16.5t12.5 45.5v170h96v-150q0 -79 -26.5 -133.5t-73.5 -73.5v-188h-96v188 q-48 21 -77.5 76t-29.5 131z" />
<glyph unicode="&#xa3;" horiz-adv-x="567" d="M-23 119q0 58 38.5 97.5t101.5 39.5q31 0 76 -25q16 42 26 123t10 154q0 58 -10 113h-135v129h109q-54 181 -54 325q0 138 49 221.5t142 83.5q85 0 128.5 -70t43.5 -180v-163h-119v174q0 78 -53 78q-23 0 -37 -22.5t-14 -66.5q0 -24 1 -48.5t3.5 -50t4.5 -45t6 -46 t6.5 -41t8 -42.5t7 -37t7.5 -37.5t7 -32.5h139v-129h-119q2 -18 2 -64q0 -85 -20.5 -193t-55.5 -186q51 -47 93 -47q25 0 38 18.5t13 49.5v200h108v-186q0 -229 -151 -229q-43 0 -87 23.5t-69 58.5q-40 -82 -110 -82q-57 0 -95.5 37t-38.5 98zM63 123q0 -18 10.5 -28.5 t28.5 -10.5q21 0 36 12.5t18 36.5q-23 29 -54 29q-18 0 -28.5 -10.5t-10.5 -28.5z" />
<glyph unicode="&#xa5;" horiz-adv-x="452" d="M16 1364h136l75 -571l78 571h131q-127 -676 -129 -676h101v-123h-121v-116h121v-125h-121v-324h-135v324h-121v125h121v116h-121v123h100z" />
<glyph unicode="&#xa7;" horiz-adv-x="479" d="M23 506q0 95 37 179.5t100 145.5q-65 88 -93 151t-28 144q0 111 54 182.5t155 71.5q96 0 147 -72t51 -180v-94h-127v109q0 92 -69 92q-37 0 -56.5 -25t-19.5 -69q0 -47 21.5 -97t53 -91.5t69 -92.5t69 -99t53 -112t21.5 -131q0 -109 -38.5 -194t-96.5 -138 q69 -97 94.5 -158.5t25.5 -146.5q0 -107 -51 -180.5t-149 -73.5q-102 0 -160.5 66t-58.5 190v84h127v-106q0 -45 21.5 -71t60.5 -26t60 30t21 79q0 58 -30.5 117.5t-73.5 113t-86 111.5t-73.5 133.5t-30.5 157.5zM156 539q0 -78 22.5 -137t75.5 -121q34 35 55 90t21 106 q0 79 -22 138.5t-75 121.5q-34 -35 -55.5 -91t-21.5 -107z" />
<glyph unicode="&#xa8;" horiz-adv-x="272" d="M16 1059v172h90v-172h-90zM164 1059v172h92v-172h-92z" />
<glyph unicode="&#xa9;" horiz-adv-x="970" d="M29 625q0 195 130.5 331t325.5 136q128 0 233 -62.5t164.5 -169.5t59.5 -235q0 -127 -59.5 -233.5t-165 -169t-232.5 -62.5q-128 0 -233.5 62.5t-164 169t-58.5 233.5zM100 625q0 -167 108.5 -282.5t276.5 -115.5t276.5 115.5t108.5 282.5q0 168 -108.5 283.5 t-276.5 115.5t-276.5 -115.5t-108.5 -283.5zM334 518v213q0 58 44 94.5t109 36.5q66 0 108 -36.5t42 -94.5v-31h-70v31q0 29 -20.5 49.5t-57.5 20.5q-36 0 -55.5 -20t-19.5 -50v-213q0 -29 19 -48t56 -19t57.5 19t20.5 48v33h70v-33q0 -56 -42.5 -93.5t-107.5 -37.5t-109 38 t-44 93z" />
<glyph unicode="&#xaa;" horiz-adv-x="387" d="M35 797v47q0 86 51 145t145 109v119q0 55 -38 55q-39 0 -39 -55v-76h-103v69q0 75 39.5 122.5t108.5 47.5q67 0 104 -48t37 -128v-452q0 -32 29 -35v-90h-31q-59 0 -80 65q-32 -65 -102 -65q-57 0 -89 45t-32 125zM141 791q0 -60 43 -60q21 0 34 19t13 47v192 q-43 -21 -66.5 -55.5t-23.5 -73.5v-69z" />
<glyph unicode="&#xab;" horiz-adv-x="532" d="M31 344v105q77 53 118 133.5t56 210.5h53q0 -151 -26.5 -245.5t-84.5 -152.5q59 -59 85 -152t26 -243h-53q-15 130 -56 210.5t-118 133.5zM266 344v105q76 53 117.5 134t56.5 210h52q0 -151 -26.5 -245.5t-84.5 -152.5q59 -59 85 -152t26 -243h-52q-15 129 -56.5 210 t-117.5 134z" />
<glyph unicode="&#xad;" horiz-adv-x="270" d="M16 586v121h238v-121h-238z" />
<glyph unicode="&#xae;" d="M31 1221q0 74 50 126t124 52q73 0 123.5 -52t50.5 -126q0 -73 -50.5 -125t-123.5 -52q-74 0 -124 52t-50 125zM61 1221q0 -61 41 -104.5t103 -43.5q63 0 104 43.5t41 104.5q0 64 -40.5 107.5t-104.5 43.5q-62 0 -103 -43.5t-41 -107.5zM150 1133v176h63q47 0 47 -43v-11 q0 -30 -20 -36q20 -3 20 -35v-25q0 -6 10 -6v-23h-10q-17 0 -24 6t-7 21v27q0 22 -20 22h-27v-73h-32zM182 1233h27q18 0 18 20v13q0 18 -16 18h-29v-51z" />
<glyph unicode="&#xaf;" horiz-adv-x="274" d="M14 1073v103h246v-103h-246z" />
<glyph unicode="&#xb0;" horiz-adv-x="327" d="M16 1231q0 61 42.5 105t105.5 44q65 0 107 -44t42 -105q0 -60 -42.5 -105t-106.5 -45q-63 0 -105.5 45t-42.5 105zM92 1231q0 -36 19.5 -59t52.5 -23q34 0 54 23t20 59q0 37 -19.5 59.5t-54.5 22.5q-33 0 -52.5 -22.5t-19.5 -59.5z" />
<glyph unicode="&#xb1;" horiz-adv-x="456" d="M53 367v108h350v-108h-350zM53 680v111h119v131h113v-131h118v-111h-118v-131h-113v131h-119z" />
<glyph unicode="&#xb4;" horiz-adv-x="212" d="M35 1053l63 250h111l-105 -250h-69z" />
<glyph unicode="&#xb6;" horiz-adv-x="722" d="M43 860v33q0 211 84.5 341t212.5 130h322v-1718h-89v1560h-90v-1560h-88v745h-55q-128 0 -212.5 130t-84.5 339zM268 686q0 -80 27 -121t74 -41h26v682h-26q-45 0 -73 -62t-28 -149v-309z" />
<glyph unicode="&#xb7;" horiz-adv-x="188" d="M37 578v204h115v-204h-115z" />
<glyph unicode="&#xb8;" horiz-adv-x="190" d="M10 -139l96 166l33 -29l-63 -109q11 11 37 11q43 0 67.5 -30t24.5 -77q0 -45 -29.5 -77.5t-73.5 -32.5q-21 0 -39 12v33h23q41 0 41 49v30q0 27 -9.5 38.5t-31.5 11.5q-23 0 -43 -23z" />
<glyph unicode="&#xba;" horiz-adv-x="378" d="M33 811v385q0 82 45 133t112 51t111.5 -51t44.5 -133v-385q0 -83 -44.5 -133.5t-111.5 -50.5q-68 0 -112.5 50.5t-44.5 133.5zM145 788q0 -23 12.5 -38t32.5 -15t31.5 14.5t11.5 38.5v429q0 24 -11.5 39.5t-31.5 15.5t-32.5 -15.5t-12.5 -39.5v-429z" />
<glyph unicode="&#xbb;" horiz-adv-x="532" d="M37 0q0 151 26 244t84 151q-58 58 -84 152.5t-26 245.5h51q15 -129 57 -210t119 -134v-105q-77 -53 -119 -134t-57 -210h-51zM270 0q0 150 26 243t85 152q-58 58 -84.5 152.5t-26.5 245.5h54q15 -129 56.5 -210t117.5 -134v-105q-76 -53 -117.5 -134t-56.5 -210h-54z" />
<glyph unicode="&#xbf;" horiz-adv-x="378" d="M-2 -123q0 82 28 212t76 249q60 145 60 299h94q0 -93 -18.5 -190t-71.5 -279q-21 -72 -31 -154.5t-10 -126.5q0 -77 13 -106t44 -29q58 0 58 80v191h114v-195q0 -102 -44.5 -163.5t-129.5 -61.5q-182 0 -182 274zM154 786v197h108v-197h-108z" />
<glyph unicode="&#xc0;" horiz-adv-x="444" d="M8 0l137 1364h154l135 -1364h-147l-15 262h-114l-23 -262h-127zM82 1655h111l63 -250h-70zM170 410h92l-39 616z" />
<glyph unicode="&#xc1;" horiz-adv-x="444" d="M8 0l137 1364h154l135 -1364h-147l-15 262h-114l-23 -262h-127zM170 410h92l-39 616zM188 1405l64 250h110l-104 -250h-70z" />
<glyph unicode="&#xc2;" horiz-adv-x="444" d="M8 0l137 1364h154l135 -1364h-147l-15 262h-114l-23 -262h-127zM63 1417v41q35 0 75.5 48t56.5 132h67q16 -84 56.5 -132t74.5 -48v-41q-27 -12 -57 -12q-93 0 -111 123q-21 -123 -110 -123q-25 0 -52 12zM170 410h92l-39 616z" />
<glyph unicode="&#xc3;" horiz-adv-x="444" d="M8 0l137 1364h154l135 -1364h-147l-15 262h-114l-23 -262h-127zM74 1479q0 62 21.5 94.5t60.5 32.5q28 0 74 -39t57 -39q24 0 24 31v47h54q14 -23 14 -62q0 -129 -82 -129q-27 0 -73 40t-58 40q-11 0 -18 -9t-7 -22v-47h-53q-14 28 -14 62zM170 410h92l-39 616z" />
<glyph unicode="&#xc4;" horiz-adv-x="444" d="M8 0l137 1364h154l135 -1364h-147l-15 262h-114l-23 -262h-127zM106 1411v172h91v-172h-91zM170 410h92l-39 616zM254 1411v172h92v-172h-92z" />
<glyph unicode="&#xc5;" horiz-adv-x="444" d="M8 0l137 1364h17q-27 34 -27 76q0 45 25 77.5t63 32.5q37 0 61.5 -32.5t24.5 -77.5q0 -46 -24 -76h14l135 -1364h-147l-15 262h-114l-23 -262h-127zM170 410h92l-39 616zM180 1440q0 -66 43 -66t43 66q0 67 -43 67t-43 -67z" />
<glyph unicode="&#xc6;" horiz-adv-x="638" d="M8 0l199 1364h405v-141h-188v-451h131v-139h-131v-492h188v-141h-331v262h-107l-33 -262h-133zM195 410h86v669z" />
<glyph unicode="&#xc7;" horiz-adv-x="462" d="M41 217v930q0 101 59 167t144 66t135.5 -64.5t50.5 -168.5v-260h-121v274q0 31 -15.5 50.5t-45.5 19.5q-31 0 -47.5 -19.5t-16.5 -50.5v-958q0 -31 16.5 -50.5t47.5 -19.5q30 0 45.5 19.5t15.5 50.5v276h121v-262q0 -102 -47.5 -165.5t-130.5 -67.5l-55 -95q11 11 36 11 q43 0 68 -30t25 -77q0 -45 -29.5 -77.5t-73.5 -32.5q-21 0 -39 12v33h23q41 0 41 49v30q0 27 -9.5 38.5t-31.5 11.5q-23 0 -43 -23l-33 29l74 125q-71 14 -117.5 76.5t-46.5 152.5z" />
<glyph unicode="&#xc8;" d="M53 0v1364h330v-141h-188v-451h133v-141h-133v-490h188v-141h-330zM78 1655h110l64 -250h-70z" />
<glyph unicode="&#xc9;" d="M53 0v1364h330v-141h-188v-451h133v-141h-133v-490h188v-141h-330zM172 1405l64 250h110l-104 -250h-70z" />
<glyph unicode="&#xca;" d="M53 0v1364h330v-141h-188v-451h133v-141h-133v-490h188v-141h-330zM53 1417v41q34 0 74.5 48t56.5 132h68q16 -84 56.5 -132t74.5 -48v-41q-27 -12 -57 -12q-93 0 -111 123q-21 -123 -111 -123q-24 0 -51 12z" />
<glyph unicode="&#xcb;" d="M53 0v1364h330v-141h-188v-451h133v-141h-133v-490h188v-141h-330zM102 1411v172h91v-172h-91zM250 1411v172h92v-172h-92z" />
<glyph unicode="&#xcc;" horiz-adv-x="249" d="M-14 1655h110l64 -250h-70zM53 0v1364h144v-1364h-144z" />
<glyph unicode="&#xcd;" horiz-adv-x="249" d="M53 0v1364h144v-1364h-144zM92 1405l64 250h110l-104 -250h-70z" />
<glyph unicode="&#xce;" horiz-adv-x="249" d="M-35 1417v41q34 0 74.5 48t56.5 132h68q16 -84 56.5 -132t74.5 -48v-41q-27 -12 -57 -12q-93 0 -111 123q-21 -123 -111 -123q-24 0 -51 12zM53 0v1364h144v-1364h-144z" />
<glyph unicode="&#xcf;" horiz-adv-x="249" d="M6 1411v172h90v-172h-90zM53 0v1364h144v-1364h-144zM154 1411v172h92v-172h-92z" />
<glyph unicode="&#xd0;" horiz-adv-x="499" d="M-10 618v123h69v623h211q187 0 187 -242v-880q0 -242 -187 -242h-211v618h-69zM201 143h61q28 0 40.5 20t12.5 66v904q0 46 -12.5 66t-40.5 20h-61v-478h57v-123h-57v-475z" />
<glyph unicode="&#xd1;" horiz-adv-x="528" d="M49 0v1364h144l131 -688l30 -199v887h125v-1364h-112l-158 688l-35 197v-885h-125zM113 1479q0 62 21.5 94.5t60.5 32.5q22 0 49 -19.5t49 -39t33 -19.5q24 0 24 31v47h53q15 -25 15 -62q0 -129 -82 -129q-27 0 -73 40t-58 40q-11 0 -18 -9t-7 -22v-47h-53q-14 28 -14 62 z" />
<glyph unicode="&#xd2;" horiz-adv-x="493" d="M43 217v930q0 101 59 167t144 66t144 -66t59 -167v-930q0 -102 -59 -167.5t-144 -65.5t-144 65.5t-59 167.5zM104 1655h111l64 -250h-70zM186 199q0 -30 15.5 -48t44.5 -18q27 0 43 18t16 48v966q0 29 -16 47.5t-43 18.5q-28 0 -44 -18.5t-16 -47.5v-966z" />
<glyph unicode="&#xd3;" horiz-adv-x="493" d="M43 217v930q0 101 59 167t144 66t144 -66t59 -167v-930q0 -102 -59 -167.5t-144 -65.5t-144 65.5t-59 167.5zM186 199q0 -30 15.5 -48t44.5 -18q27 0 43 18t16 48v966q0 29 -16 47.5t-43 18.5q-28 0 -44 -18.5t-16 -47.5v-966zM209 1405l63 250h111l-104 -250h-70z" />
<glyph unicode="&#xd4;" horiz-adv-x="493" d="M43 217v930q0 101 59 167t144 66t144 -66t59 -167v-930q0 -102 -59 -167.5t-144 -65.5t-144 65.5t-59 167.5zM84 1417v41q34 0 74.5 48t56.5 132h68q16 -84 56.5 -132t74.5 -48v-41q-27 -12 -58 -12q-92 0 -110 123q-21 -123 -111 -123q-24 0 -51 12zM186 199 q0 -30 15.5 -48t44.5 -18q27 0 43 18t16 48v966q0 29 -16 47.5t-43 18.5q-28 0 -44 -18.5t-16 -47.5v-966z" />
<glyph unicode="&#xd5;" horiz-adv-x="493" d="M43 217v930q0 101 59 167t144 66t144 -66t59 -167v-930q0 -102 -59 -167.5t-144 -65.5t-144 65.5t-59 167.5zM90 1479q0 62 21.5 94.5t60.5 32.5q28 0 74 -39t57 -39q25 0 25 31v47h53q14 -23 14 -62q0 -129 -82 -129q-27 0 -73 40t-58 40q-24 0 -24 -31v-47h-54 q-14 28 -14 62zM186 199q0 -30 15.5 -48t44.5 -18q27 0 43 18t16 48v966q0 29 -16 47.5t-43 18.5q-28 0 -44 -18.5t-16 -47.5v-966z" />
<glyph unicode="&#xd6;" horiz-adv-x="493" d="M43 217v930q0 101 59 167t144 66t144 -66t59 -167v-930q0 -102 -59 -167.5t-144 -65.5t-144 65.5t-59 167.5zM127 1411v172h90v-172h-90zM186 199q0 -30 15.5 -48t44.5 -18q27 0 43 18t16 48v966q0 29 -16 47.5t-43 18.5q-28 0 -44 -18.5t-16 -47.5v-966zM274 1411v172 h93v-172h-93z" />
<glyph unicode="&#xd7;" horiz-adv-x="552" d="M88 571l109 109l-109 111l80 77l108 -110l109 110l80 -77l-113 -109l113 -109l-80 -79l-111 108l-108 -108z" />
<glyph unicode="&#xd8;" horiz-adv-x="493" d="M29 -31l37 144q-23 51 -23 104v930q0 103 58.5 168t144.5 65q65 0 121 -43l18 78l76 -20l-35 -144q23 -56 23 -104v-930q0 -102 -59 -167.5t-144 -65.5q-65 0 -121 43l-19 -78zM184 590l121 510v76q-3 25 -19 40t-40 15q-29 0 -45.5 -18.5t-16.5 -47.5v-575zM186 186 q6 -53 60 -53q27 0 43 18t16 48v575l-119 -510v-78z" />
<glyph unicode="&#xd9;" horiz-adv-x="487" d="M47 217v1147h141v-1159q0 -72 58 -72q59 0 59 72v1159h135v-1147q0 -103 -56 -168t-140 -65t-140.5 65t-56.5 168zM111 1655h110l64 -250h-70z" />
<glyph unicode="&#xda;" horiz-adv-x="487" d="M47 217v1147h141v-1159q0 -72 58 -72q59 0 59 72v1159h135v-1147q0 -103 -56 -168t-140 -65t-140.5 65t-56.5 168zM213 1405l63 250h111l-104 -250h-70z" />
<glyph unicode="&#xdb;" horiz-adv-x="487" d="M47 217v1147h141v-1159q0 -72 58 -72q59 0 59 72v1159h135v-1147q0 -103 -56 -168t-140 -65t-140.5 65t-56.5 168zM84 1417v41q34 0 74.5 48t56.5 132h68q16 -84 56.5 -132t74.5 -48v-41q-27 -12 -58 -12q-92 0 -110 123q-21 -123 -111 -123q-24 0 -51 12z" />
<glyph unicode="&#xdc;" horiz-adv-x="487" d="M47 217v1147h141v-1159q0 -72 58 -72q59 0 59 72v1159h135v-1147q0 -103 -56 -168t-140 -65t-140.5 65t-56.5 168zM129 1411v172h90v-172h-90zM276 1411v172h93v-172h-93z" />
<glyph unicode="&#xdd;" horiz-adv-x="442" d="M-2 1364h137l86 -602l86 602h135l-159 -829v-535h-142v535zM190 1405l64 250h111l-105 -250h-70z" />
<glyph unicode="&#xde;" horiz-adv-x="466" d="M53 0v1364h144v-250h63q33 0 62.5 -9.5t57 -31.5t44 -66t16.5 -106v-366q0 -62 -16.5 -106.5t-44 -67t-57 -32.5t-62.5 -10h-63v-319h-144zM197 457h61q43 0 43 65v381q0 68 -43 68h-61v-514z" />
<glyph unicode="&#xdf;" horiz-adv-x="423" d="M47 0v1161q0 96 44.5 154.5t121.5 58.5q80 0 123 -57t43 -156v-293q0 -49 -18.5 -88.5t-47.5 -60.5q68 -51 68 -152v-407q0 -82 -35 -127t-88 -45q-25 0 -49 12v80q28 -3 41.5 11t13.5 46v461q0 74 -53 74v110q29 0 41 18.5t12 55.5v320q0 36 -13 56.5t-36 20.5 q-51 0 -51 -77v-1176h-117z" />
<glyph unicode="&#xe0;" horiz-adv-x="380" d="M27 199v82q0 102 51.5 184.5t142.5 159.5v170q0 65 -37 65t-37 -65v-117h-104v110q0 92 40.5 149.5t106.5 57.5q64 0 103 -56.5t39 -150.5v-655q0 -40 22 -45v-104h-26q-53 0 -80 71q-12 -32 -37.5 -51.5t-54.5 -19.5q-62 0 -95.5 57t-33.5 158zM53 1303h111l63 -250h-69 zM139 184q0 -71 39 -71q20 0 31.5 24.5t11.5 57.5v282q-37 -33 -59.5 -82t-22.5 -94v-117z" />
<glyph unicode="&#xe1;" horiz-adv-x="380" d="M27 199v82q0 102 51.5 184.5t142.5 159.5v170q0 65 -37 65t-37 -65v-117h-104v110q0 92 40.5 149.5t106.5 57.5q64 0 103 -56.5t39 -150.5v-655q0 -40 22 -45v-104h-26q-53 0 -80 71q-12 -32 -37.5 -51.5t-54.5 -19.5q-62 0 -95.5 57t-33.5 158zM139 184q0 -71 39 -71 q20 0 31.5 24.5t11.5 57.5v282q-37 -33 -59.5 -82t-22.5 -94v-117zM158 1053l63 250h111l-105 -250h-69z" />
<glyph unicode="&#xe2;" horiz-adv-x="380" d="M27 199v82q0 102 51.5 184.5t142.5 159.5v170q0 65 -37 65t-37 -65v-117h-104v110q0 92 40.5 149.5t106.5 57.5q64 0 103 -56.5t39 -150.5v-655q0 -40 22 -45v-104h-26q-53 0 -80 71q-12 -32 -37.5 -51.5t-54.5 -19.5q-62 0 -95.5 57t-33.5 158zM31 1065v41q34 0 74.5 48 t56.5 132h67q16 -84 56.5 -132t74.5 -48v-41q-27 -12 -57 -12q-92 0 -110 123q-21 -123 -111 -123q-24 0 -51 12zM139 184q0 -71 39 -71q20 0 31.5 24.5t11.5 57.5v282q-37 -33 -59.5 -82t-22.5 -94v-117z" />
<glyph unicode="&#xe3;" horiz-adv-x="380" d="M27 199v82q0 102 51.5 184.5t142.5 159.5v170q0 65 -37 65t-37 -65v-117h-104v110q0 92 40.5 149.5t106.5 57.5q64 0 103 -56.5t39 -150.5v-655q0 -40 22 -45v-104h-26q-53 0 -80 71q-12 -32 -37.5 -51.5t-54.5 -19.5q-62 0 -95.5 57t-33.5 158zM39 1126q0 62 21.5 94.5 t60.5 32.5q22 0 49 -19.5t49 -38.5t33 -19q24 0 24 30v47h54q14 -23 14 -61q0 -129 -82 -129q-27 0 -73 40t-58 40q-11 0 -18 -9t-7 -22v-47h-53q-14 28 -14 61zM139 184q0 -71 39 -71q20 0 31.5 24.5t11.5 57.5v282q-37 -33 -59.5 -82t-22.5 -94v-117z" />
<glyph unicode="&#xe4;" horiz-adv-x="380" d="M27 199v82q0 102 51.5 184.5t142.5 159.5v170q0 65 -37 65t-37 -65v-117h-104v110q0 92 40.5 149.5t106.5 57.5q64 0 103 -56.5t39 -150.5v-655q0 -40 22 -45v-104h-26q-53 0 -80 71q-12 -32 -37.5 -51.5t-54.5 -19.5q-62 0 -95.5 57t-33.5 158zM74 1059v172h90v-172h-90 zM139 184q0 -71 39 -71q20 0 31.5 24.5t11.5 57.5v282q-37 -33 -59.5 -82t-22.5 -94v-117zM221 1059v172h92v-172h-92z" />
<glyph unicode="&#xe5;" horiz-adv-x="380" d="M27 199v82q0 102 51.5 184.5t142.5 159.5v170q0 65 -37 65t-37 -65v-117h-104v110q0 92 40.5 149.5t106.5 57.5q64 0 103 -56.5t39 -150.5v-655q0 -40 22 -45v-104h-26q-53 0 -80 71q-12 -32 -37.5 -51.5t-54.5 -19.5q-62 0 -95.5 57t-33.5 158zM102 1171q0 45 25 78 t63 33q37 0 61.5 -33t24.5 -78t-24.5 -77.5t-61.5 -32.5q-38 0 -63 32.5t-25 77.5zM139 184q0 -71 39 -71q20 0 31.5 24.5t11.5 57.5v282q-37 -33 -59.5 -82t-22.5 -94v-117zM147 1171q0 -67 43 -67t43 67q0 66 -43 66t-43 -66z" />
<glyph unicode="&#xe6;" horiz-adv-x="557" d="M27 199v82q0 102 52 185t144 159v170q0 67 -41 67q-37 0 -37 -67v-117h-104v110q0 91 40.5 149t98.5 58q31 0 51.5 -16t40.5 -51q39 67 103 67q61 0 102 -61t41 -156v-319h-188v-277q0 -65 45 -65q41 0 41 65v168h102v-151q0 -95 -41 -155t-102 -60q-66 0 -103 63 q-37 -63 -106 -63q-139 0 -139 215zM139 184q0 -71 41 -71q19 0 31 24.5t12 57.5v282q-39 -33 -61.5 -81.5t-22.5 -94.5v-117zM330 569h86v224q0 69 -41 69q-45 0 -45 -69v-224z" />
<glyph unicode="&#xe7;" horiz-adv-x="374" d="M41 199v581q0 94 45 154.5t111 60.5q68 0 107.5 -59t39.5 -156v-153h-96v172q0 28 -12.5 44.5t-32.5 16.5q-19 0 -32 -17t-13 -44v-621q0 -27 13 -43t32 -16q20 0 32.5 16t12.5 43v170h96v-149q0 -90 -33 -147t-94 -66l-55 -97q11 11 37 11q43 0 67.5 -30t24.5 -77 q0 -45 -29.5 -77.5t-73.5 -32.5q-20 0 -38 12v33h22q41 0 41 49v30q0 27 -9.5 38.5t-31.5 11.5q-23 0 -43 -23l-33 29l74 125q-56 11 -92.5 68.5t-36.5 142.5z" />
<glyph unicode="&#xe8;" horiz-adv-x="385" d="M41 199v579q0 95 46 156t112 61t106.5 -60t40.5 -157v-319h-188v-277q0 -65 45 -65q41 0 41 65v168h102v-151q0 -97 -40.5 -156t-106.5 -59t-112 60t-46 155zM59 1303h111l63 -250h-69zM158 569h86v224q0 67 -41 67q-45 0 -45 -67v-224z" />
<glyph unicode="&#xe9;" horiz-adv-x="385" d="M41 199v579q0 95 46 156t112 61t106.5 -60t40.5 -157v-319h-188v-277q0 -65 45 -65q41 0 41 65v168h102v-151q0 -97 -40.5 -156t-106.5 -59t-112 60t-46 155zM158 569h86v224q0 67 -41 67q-45 0 -45 -67v-224zM162 1053l63 250h111l-105 -250h-69z" />
<glyph unicode="&#xea;" horiz-adv-x="385" d="M35 1065v41q34 0 74.5 48t56.5 132h67q16 -84 56.5 -132t75.5 -48v-41q-27 -12 -58 -12q-92 0 -110 123q-21 -123 -111 -123q-24 0 -51 12zM41 199v579q0 95 46 156t112 61t106.5 -60t40.5 -157v-319h-188v-277q0 -65 45 -65q41 0 41 65v168h102v-151q0 -97 -40.5 -156 t-106.5 -59t-112 60t-46 155zM158 569h86v224q0 67 -41 67q-45 0 -45 -67v-224z" />
<glyph unicode="&#xeb;" horiz-adv-x="385" d="M41 199v579q0 95 46 156t112 61t106.5 -60t40.5 -157v-319h-188v-277q0 -65 45 -65q41 0 41 65v168h102v-151q0 -97 -40.5 -156t-106.5 -59t-112 60t-46 155zM78 1059v172h90v-172h-90zM158 569h86v224q0 67 -41 67q-45 0 -45 -67v-224zM225 1059v172h92v-172h-92z" />
<glyph unicode="&#xec;" horiz-adv-x="212" d="M-35 1303h111l63 -250h-69zM47 0v983h117v-983h-117z" />
<glyph unicode="&#xed;" horiz-adv-x="212" d="M47 0v983h117v-983h-117zM72 1053l63 250h111l-105 -250h-69z" />
<glyph unicode="&#xee;" horiz-adv-x="212" d="M-57 1065v41q34 0 74.5 48t56.5 132h67q16 -84 56.5 -132t74.5 -48v-41q-27 -12 -57 -12q-93 0 -111 123q-21 -123 -110 -123q-24 0 -51 12zM47 0v983h117v-983h-117z" />
<glyph unicode="&#xef;" horiz-adv-x="212" d="M-16 1059v172h90v-172h-90zM47 0v983h117v-983h-117zM131 1059v172h92v-172h-92z" />
<glyph unicode="&#xf0;" horiz-adv-x="401" d="M41 199v626q0 67 29.5 112.5t76.5 45.5q66 0 97 -70q0 138 -17 222l-75 -43l-31 79l82 48q-24 69 -82 139v6h125q30 -40 53 -88l51 31l31 -80l-53 -33q32 -109 32 -315v-680q0 -95 -46 -155t-113 -60t-113.5 60t-46.5 155zM160 174q0 -25 11 -40t30 -15q20 0 31.5 15 t11.5 40v631q0 26 -12 42.5t-31 16.5t-30 -16.5t-11 -42.5v-631z" />
<glyph unicode="&#xf1;" horiz-adv-x="411" d="M47 0v983h111l6 -70q13 40 39 61t55 21q47 0 77 -44.5t30 -114.5v-836h-115v805q0 26 -12 42.5t-31 16.5t-31 -16.5t-12 -42.5v-805h-117zM51 1126q0 62 21.5 94.5t60.5 32.5q22 0 49 -19.5t49 -38.5t33 -19q25 0 25 30v47h53q14 -23 14 -61q0 -129 -82 -129 q-27 0 -73 40t-58 40q-24 0 -24 -31v-47h-53q-15 30 -15 61z" />
<glyph unicode="&#xf2;" horiz-adv-x="401" d="M41 199v579q0 95 46.5 156t113.5 61t112 -61t45 -156v-579q0 -95 -45 -155t-112 -60t-113.5 60t-46.5 155zM63 1303h111l64 -250h-70zM160 174q0 -55 41 -55q20 0 31.5 15t11.5 40v627q0 27 -11.5 43t-31.5 16q-41 0 -41 -59v-627z" />
<glyph unicode="&#xf3;" horiz-adv-x="401" d="M41 199v579q0 95 46.5 156t113.5 61t112 -61t45 -156v-579q0 -95 -45 -155t-112 -60t-113.5 60t-46.5 155zM160 174q0 -55 41 -55q20 0 31.5 15t11.5 40v627q0 27 -11.5 43t-31.5 16q-41 0 -41 -59v-627zM168 1053l63 250h111l-104 -250h-70z" />
<glyph unicode="&#xf4;" horiz-adv-x="401" d="M39 1065v41q34 0 74.5 48t56.5 132h68q16 -84 56.5 -132t74.5 -48v-41q-27 -12 -58 -12q-92 0 -110 123q-21 -123 -111 -123q-24 0 -51 12zM41 199v579q0 95 46.5 156t113.5 61t112 -61t45 -156v-579q0 -95 -45 -155t-112 -60t-113.5 60t-46.5 155zM160 174q0 -55 41 -55 q20 0 31.5 15t11.5 40v627q0 27 -11.5 43t-31.5 16q-41 0 -41 -59v-627z" />
<glyph unicode="&#xf5;" horiz-adv-x="401" d="M41 199v579q0 95 46.5 156t113.5 61t112 -61t45 -156v-579q0 -95 -45 -155t-112 -60t-113.5 60t-46.5 155zM47 1126q0 62 21.5 94.5t60.5 32.5q22 0 49 -19.5t49 -38.5t33 -19q25 0 25 30v47h53q14 -23 14 -61q0 -129 -82 -129q-27 0 -73 40t-58 40q-24 0 -24 -31v-47 h-54q-14 28 -14 61zM160 174q0 -55 41 -55q20 0 31.5 15t11.5 40v627q0 27 -11.5 43t-31.5 16q-41 0 -41 -59v-627z" />
<glyph unicode="&#xf6;" horiz-adv-x="401" d="M41 199v579q0 95 46.5 156t113.5 61t112 -61t45 -156v-579q0 -95 -45 -155t-112 -60t-113.5 60t-46.5 155zM82 1059v172h90v-172h-90zM160 174q0 -55 41 -55q20 0 31.5 15t11.5 40v627q0 27 -11.5 43t-31.5 16q-41 0 -41 -59v-627zM229 1059v172h93v-172h-93z" />
<glyph unicode="&#xf7;" horiz-adv-x="456" d="M53 637v111h350v-111h-350zM180 436v137h96v-137h-96zM180 807v137h96v-137h-96z" />
<glyph unicode="&#xf8;" horiz-adv-x="401" d="M-23 14l66 162q0 4 -1 13.5t-1 13.5v575q0 95 46.5 156t113.5 61q43 0 78 -26t55 -72l43 102l49 -34q-52 -125 -70 -166q2 -6 2 -25v-575q0 -95 -45 -155t-112 -60q-41 0 -77 26t-58 70l-41 -100zM158 174q0 -25 11.5 -40t31.5 -15t31.5 15t11.5 40v342q0 1 -21.5 -52 t-42.5 -106l-22 -53v-131zM158 457l86 213v131q0 27 -11.5 44t-31.5 17t-31.5 -17t-11.5 -44v-344z" />
<glyph unicode="&#xf9;" d="M45 141v842h115v-811q0 -26 13 -42.5t32 -16.5t30 16.5t11 42.5v811h116v-983h-110l-6 63q-26 -79 -94 -79q-46 0 -76.5 44t-30.5 113zM66 1303h110l64 -250h-70z" />
<glyph unicode="&#xfa;" d="M45 141v842h115v-811q0 -26 13 -42.5t32 -16.5t30 16.5t11 42.5v811h116v-983h-110l-6 63q-26 -79 -94 -79q-46 0 -76.5 44t-30.5 113zM170 1053l63 250h111l-104 -250h-70z" />
<glyph unicode="&#xfb;" d="M41 1065v41q34 0 74.5 48t56.5 132h68q16 -84 56.5 -132t74.5 -48v-41q-27 -12 -58 -12q-92 0 -110 123q-21 -123 -111 -123q-24 0 -51 12zM45 141v842h115v-811q0 -26 13 -42.5t32 -16.5t30 16.5t11 42.5v811h116v-983h-110l-6 63q-26 -79 -94 -79q-46 0 -76.5 44 t-30.5 113z" />
<glyph unicode="&#xfc;" d="M45 141v842h115v-811q0 -26 13 -42.5t32 -16.5t30 16.5t11 42.5v811h116v-983h-110l-6 63q-26 -79 -94 -79q-46 0 -76.5 44t-30.5 113zM84 1059v172h90v-172h-90zM231 1059v172h93v-172h-93z" />
<glyph unicode="&#xfd;" horiz-adv-x="352" d="M14 983h115l35 -481l12 -205l12 205l35 481h111l-121 -1096q-16 -143 -49.5 -195t-124.5 -52h-10v124h18q25 0 36.5 18.5t16.5 59.5l19 168zM147 1053l64 250h111l-105 -250h-70z" />
<glyph unicode="&#xfe;" horiz-adv-x="405" d="M47 -354v1718h117v-432q31 69 94 69q47 0 77 -44.5t30 -114.5v-697q0 -69 -30 -113t-77 -44q-63 0 -94 69v-411h-117zM164 176q0 -25 12 -41t31 -16t31 16t12 41v635q0 26 -12 42.5t-31 16.5t-31 -16.5t-12 -42.5v-635z" />
<glyph unicode="&#xff;" horiz-adv-x="352" d="M14 983h115l35 -481l12 -205l12 205l35 481h111l-121 -1096q-16 -143 -49.5 -195t-124.5 -52h-10v124h18q25 0 36.5 18.5t16.5 59.5l19 168zM61 1059v172h91v-172h-91zM209 1059v172h92v-172h-92z" />
<glyph unicode="&#x152;" horiz-adv-x="655" d="M43 242v880q0 126 50 184t136 58h400v-141h-189v-451h133v-139h-133v-492h189v-141h-400q-86 0 -136 58t-50 184zM184 229q0 -45 13 -65.5t41 -20.5h61v1076h-61q-28 0 -41 -20.5t-13 -65.5v-904z" />
<glyph unicode="&#x153;" horiz-adv-x="583" d="M41 199v579q0 94 47 155.5t109 61.5t104 -67q36 67 100 67q62 0 103 -60.5t41 -156.5v-319h-189v-277q0 -65 45 -65q43 0 43 65v168h101v-151q0 -96 -41 -155.5t-103 -59.5q-63 0 -100 63q-40 -63 -104 -63q-62 0 -109 60.5t-47 154.5zM158 174q0 -25 12 -40t31 -15 q41 0 41 55v627q0 27 -10.5 44t-30.5 17q-19 0 -31 -17.5t-12 -43.5v-627zM356 569h88v224q0 69 -43 69q-45 0 -45 -69v-224z" />
<glyph unicode="&#x178;" horiz-adv-x="442" d="M-2 1364h137l86 -602l86 602h135l-159 -829v-535h-142v535zM104 1411v172h91v-172h-91zM252 1411v172h92v-172h-92z" />
<glyph unicode="&#x2c6;" horiz-adv-x="346" d="M8 1065v41q34 0 74.5 48t56.5 132h68q16 -84 56.5 -132t74.5 -48v-41q-27 -12 -57 -12q-93 0 -111 123q-21 -123 -111 -123q-24 0 -51 12z" />
<glyph unicode="&#x2dc;" horiz-adv-x="325" d="M10 1126q0 62 21.5 94.5t60.5 32.5q28 0 74 -38.5t57 -38.5q25 0 25 30v47h53q14 -23 14 -61q0 -129 -82 -129q-27 0 -73 40t-58 40q-24 0 -24 -31v-47h-53q-15 30 -15 61z" />
<glyph unicode="&#x2000;" horiz-adv-x="827" />
<glyph unicode="&#x2001;" horiz-adv-x="1655" />
<glyph unicode="&#x2002;" horiz-adv-x="827" />
<glyph unicode="&#x2003;" horiz-adv-x="1655" />
<glyph unicode="&#x2004;" horiz-adv-x="551" />
<glyph unicode="&#x2005;" horiz-adv-x="413" />
<glyph unicode="&#x2006;" horiz-adv-x="275" />
<glyph unicode="&#x2007;" horiz-adv-x="275" />
<glyph unicode="&#x2008;" horiz-adv-x="206" />
<glyph unicode="&#x2009;" horiz-adv-x="331" />
<glyph unicode="&#x200a;" horiz-adv-x="91" />
<glyph unicode="&#x2010;" horiz-adv-x="270" d="M16 586v121h238v-121h-238z" />
<glyph unicode="&#x2011;" horiz-adv-x="270" d="M16 586v121h238v-121h-238z" />
<glyph unicode="&#x2012;" horiz-adv-x="270" d="M16 586v121h238v-121h-238z" />
<glyph unicode="&#x2013;" horiz-adv-x="819" d="M129 586v121h563v-121h-563z" />
<glyph unicode="&#x2014;" horiz-adv-x="1228" d="M129 586v121h973v-121h-973z" />
<glyph unicode="&#x2018;" horiz-adv-x="188" d="M37 1018v186q0 72 30 116t85 44v-41q-54 0 -54 -100h54v-205h-115z" />
<glyph unicode="&#x2019;" horiz-adv-x="188" d="M37 1018v41q53 0 53 100h-53v205h115v-186q0 -72 -30 -116t-85 -44z" />
<glyph unicode="&#x201a;" horiz-adv-x="188" d="M37 0v205h115v-187q0 -71 -30 -115t-85 -44v41q53 0 53 100h-53z" />
<glyph unicode="&#x201c;" horiz-adv-x="339" d="M37 1018v186q0 72 30 116t85 44v-41q-54 0 -54 -100h54v-205h-115zM188 1018v186q0 72 30 116t85 44v-41q-53 0 -53 -100h53v-205h-115z" />
<glyph unicode="&#x201d;" horiz-adv-x="339" d="M37 1018v41q53 0 53 100h-53v205h115v-186q0 -72 -30 -116t-85 -44zM188 1018v41q54 0 54 100h-54v205h115v-186q0 -72 -30 -116t-85 -44z" />
<glyph unicode="&#x201e;" horiz-adv-x="339" d="M37 0v205h115v-187q0 -71 -30 -115t-85 -44v41q53 0 53 100h-53zM188 0v205h115v-187q0 -71 -30 -115t-85 -44v41q54 0 54 100h-54z" />
<glyph unicode="&#x2022;" horiz-adv-x="358" d="M20 682q0 74 45 117t115 43q69 0 113.5 -43.5t44.5 -116.5q0 -75 -44.5 -118.5t-113.5 -43.5q-71 0 -115.5 43.5t-44.5 118.5z" />
<glyph unicode="&#x2026;" horiz-adv-x="552" d="M37 0v205h115v-205h-115zM219 0v205h115v-205h-115zM401 0v205h115v-205h-115z" />
<glyph unicode="&#x202f;" horiz-adv-x="331" />
<glyph unicode="&#x2039;" horiz-adv-x="296" d="M31 344v105q77 53 118 133.5t56 210.5h53q0 -151 -26.5 -245.5t-84.5 -152.5q59 -59 85 -152t26 -243h-53q-15 130 -56 210.5t-118 133.5z" />
<glyph unicode="&#x203a;" horiz-adv-x="296" d="M39 0q0 150 26 243t85 152q-58 58 -84.5 152.5t-26.5 245.5h53q15 -130 56 -210.5t118 -133.5v-105q-77 -53 -118 -133.5t-56 -210.5h-53z" />
<glyph unicode="&#x205f;" horiz-adv-x="413" />
<glyph unicode="&#x20ac;" horiz-adv-x="473" d="M4 518v100h64v130h-64v102h62v299q0 104 51 167.5t133 63.5q86 0 134 -62t48 -171v-213h-115v221q0 36 -16.5 56t-46.5 20t-47 -20t-17 -56v-305h156v-102h-156v-130h156v-100h-156v-309q0 -36 17 -56t47 -20t46.5 20t16.5 56v221h115v-213q0 -109 -48 -171t-134 -62 q-83 0 -133.5 63.5t-50.5 167.5v303h-62z" />
<glyph unicode="&#x2122;" horiz-adv-x="612" d="M18 1315v49h207v-49h-73v-246h-60v246h-74zM274 1069v295h86l41 -164l19 -78l20 78l37 164h88v-295h-55v240l-21 -84l-45 -156h-51l-43 156l-20 84v-240h-56z" />
<glyph unicode="&#x25fc;" horiz-adv-x="983" d="M0 0v983h983v-983h-983z" />
</font>
</defs>
</svg>
