<?xml version="1.0" standalone="no"?>
<!DOCTYPE svg PUBLIC "-//W3C//DTD SVG 1.1//EN" "http://www.w3.org/Graphics/SVG/1.1/DTD/svg11.dtd" >
<svg xmlns="http://www.w3.org/2000/svg" xmlns:xlink="http://www.w3.org/1999/xlink" version="1.1">
<metadata></metadata>
<defs>
<font id="knockout69_full_liteweight" horiz-adv-x="839" >
<font-face units-per-em="2048" ascent="1638" descent="-410" />
<missing-glyph horiz-adv-x="294" />
<glyph unicode="&#xfb01;" horiz-adv-x="937" d="M872 1118h-256v230h256v-230zM530 788h-129v-788h-260v788h-108v207h108v54q0 315 318 315h65v-195h-24q-60 0 -81.5 -22.5t-21.5 -71.5v-80h133v-207zM872 0h-258v1006h258v-1006z" />
<glyph unicode="&#xfb02;" horiz-adv-x="937" d="M872 0h-258v1364h258v-1364zM530 788h-129v-788h-260v788h-108v207h108v54q0 315 318 315h65v-195h-24q-60 0 -81.5 -22.5t-21.5 -71.5v-80h133v-207z" />
<glyph unicode="&#xfb03;" horiz-adv-x="1406" d="M1341 1118h-256v230h256v-230zM999 788h-129v-788h-260v788h-209v-788h-260v788h-108v207h108v54q0 315 318 315h65v-195h-24q-60 0 -81.5 -22.5t-21.5 -71.5v-80h213v54q0 315 318 315h65v-195h-24q-60 0 -81.5 -22.5t-21.5 -71.5v-80h133v-207zM1341 0h-258v1006h258 v-1006z" />
<glyph unicode="&#xfb04;" horiz-adv-x="1406" d="M1341 0h-258v1364h258v-1364zM999 788h-129v-788h-260v788h-209v-788h-260v788h-108v207h108v54q0 315 318 315h65v-195h-24q-60 0 -81.5 -22.5t-21.5 -71.5v-80h213v54q0 315 318 315h65v-195h-24q-60 0 -81.5 -22.5t-21.5 -71.5v-80h133v-207z" />
<glyph horiz-adv-x="0" />
<glyph horiz-adv-x="682" />
<glyph unicode=" "  horiz-adv-x="294" />
<glyph unicode="&#x09;" horiz-adv-x="294" />
<glyph unicode="&#xa0;" horiz-adv-x="294" />
<glyph unicode="!" horiz-adv-x="397" d="M328 772l-88 -391h-82l-88 391v592h258v-592zM305 0h-215v248h215v-248z" />
<glyph unicode="&#x22;" horiz-adv-x="522" d="M545 1364l-156 -420h-131l109 420h178zM281 1364l-119 -420h-125l69 420h175z" />
<glyph unicode="#" horiz-adv-x="1183" d="M1165 879h-264l-70 -394h277v-120h-297l-61 -365h-142l62 365h-250l-62 -365h-139l62 365h-244v120h266l68 394h-279v120h299l62 365h139l-62 -365h250l62 365h141l-61 -365h243v-120zM760 879h-250l-68 -394h250z" />
<glyph unicode="$" horiz-adv-x="835" d="M338 1382v146h172v-144q118 -23 191 -118t73 -226v-88h-256v101q0 48 -22 71t-56 23q-38 0 -64 -22t-26 -72q0 -21 4 -40.5t8 -34t16.5 -33t19.5 -28.5t27 -31t29 -29.5t37 -34.5t39 -36q41 -37 63 -59t58 -60t56.5 -69t42 -71.5t31.5 -84t10 -90.5q0 -139 -75.5 -243.5 t-205.5 -131.5v-141h-172v141q-135 22 -210 112.5t-75 234.5v98h254v-100q0 -53 26 -80t73 -27q48 0 71 23.5t23 80.5q0 66 -35.5 120t-145.5 147q-54 46 -92 85t-80 93.5t-64 117t-22 128.5q0 134 72.5 238t204.5 134z" />
<glyph unicode="%" horiz-adv-x="1171" d="M473 899q0 -96 -59 -153.5t-152 -57.5q-91 0 -149 57t-58 154v283q0 97 58 154t149 57q93 0 152 -57.5t59 -153.5v-283zM1053 1337l-840 -1382l-92 68l840 1384zM1118 180q0 -98 -58.5 -155.5t-150.5 -57.5q-91 0 -150 57.5t-59 155.5v283q0 96 59 153.5t150 57.5 q92 0 150.5 -57t58.5 -154v-283zM328 872v338q0 29 -18.5 48.5t-47.5 19.5q-26 0 -44.5 -19.5t-18.5 -48.5v-338q0 -29 18 -48t45 -19q29 0 47.5 19t18.5 48zM975 152v340q0 29 -18.5 47t-47.5 18t-46 -18t-17 -47v-340q0 -30 17 -49t46 -19t47.5 19.5t18.5 48.5z" />
<glyph unicode="&#x26;" horiz-adv-x="1136" d="M1114 207q0 -117 -51 -177.5t-148 -60.5q-99 0 -215 101q-125 -101 -290 -101q-150 0 -252.5 109t-102.5 262q0 247 248 405q-80 157 -80 277q0 175 97.5 274t248.5 99q136 0 213.5 -86.5t77.5 -221.5q0 -111 -58 -199.5t-192 -191.5q84 -181 131 -258q26 48 40 122 t14 145h206q-2 -116 -36 -234.5t-95 -214.5q40 -43 72 -43q57 0 57 70v47h115v-123zM633 1065q0 40 -16.5 62t-47.5 22q-40 0 -62 -33t-22 -84q0 -72 39 -158q50 37 79.5 90.5t29.5 100.5zM541 246q-64 94 -148 270q-59 -56 -59 -160q0 -62 32.5 -98.5t96.5 -36.5 q42 0 78 25z" />
<glyph unicode="'" horiz-adv-x="315" d="M354 1364l-170 -420h-131l72 420h229z" />
<glyph unicode="(" horiz-adv-x="634" d="M647 -258l-74 -82q-209 167 -313 415t-104 541q0 294 104 543t313 414l74 -80q-133 -176 -192.5 -385t-59.5 -492q0 -282 59.5 -491.5t192.5 -382.5z" />
<glyph unicode=")" horiz-adv-x="634" d="M483 616q0 -293 -104 -541t-313 -415l-76 82q134 173 194 382.5t60 491.5q0 283 -60 492t-194 385l76 80q209 -165 313 -414t104 -543z" />
<glyph unicode="*" horiz-adv-x="600" d="M553 993l-37 -63q-6 -10 -18 -10.5t-19 4.5q-69 41 -139 108q22 -96 22 -178q0 -29 -22 -29h-76q-22 0 -22 29q0 74 22 176q-70 -68 -141 -108q-7 -5 -19 -4.5t-18 10.5l-37 63q-5 11 -0.5 20.5t14.5 14.5q74 43 162 68q-89 26 -164 69q-9 5 -14 15t0 18l37 66 q6 10 18 10.5t19 -4.5q66 -40 141 -107q-24 102 -24 176q0 10 6.5 19.5t17.5 9.5h76q22 0 22 -29q0 -77 -22 -176q70 67 139 109q26 13 39 -6l37 -66q12 -20 -14 -33q-58 -37 -162 -67q81 -24 162 -70q25 -13 14 -35z" />
<glyph unicode="+" horiz-adv-x="684" d="M639 612h-207v-211h-180v211h-207v187h207v209h180v-209h207v-187z" />
<glyph unicode="," horiz-adv-x="335" d="M283 27q0 -96 -64 -160t-166 -64v62q49 0 78 33t29 102h-107v289h230v-262z" />
<glyph unicode="-" horiz-adv-x="501" d="M467 526h-430v191h430v-191z" />
<glyph unicode="." horiz-adv-x="335" d="M283 0h-230v289h230v-289z" />
<glyph unicode="/" horiz-adv-x="524" d="M512 1493l-354 -1624h-148l355 1624h147z" />
<glyph unicode="0" horiz-adv-x="860" d="M795 324q0 -159 -99.5 -257t-265.5 -98q-165 0 -264.5 98t-99.5 257v714q0 160 99.5 257.5t264.5 97.5q167 0 266 -97.5t99 -257.5v-714zM508 309v746q0 32 -20.5 50.5t-57.5 18.5q-36 0 -57 -19t-21 -50v-746q0 -31 21 -51t57 -20q37 0 57.5 19.5t20.5 51.5z" />
<glyph unicode="1" horiz-adv-x="544" d="M418 0h-289v1235q65 0 96 36.5t31 92.5h162v-1364z" />
<glyph unicode="2" horiz-adv-x="817" d="M762 1032q0 -129 -51.5 -237.5t-192.5 -255.5q-85 -102 -115 -163.5t-30 -117.5h381v-258h-709v72q0 159 57.5 290t216.5 328q99 117 137 194t38 154q0 97 -84 97q-40 0 -61 -26t-21 -71v-131h-260v162q0 61 21 118.5t61 104.5t105 75t146 28q96 0 168 -29t113 -80 t60.5 -114.5t19.5 -139.5z" />
<glyph unicode="3" horiz-adv-x="806" d="M756 303q0 -150 -102.5 -242t-268.5 -92q-157 0 -246.5 97.5t-89.5 226.5v135h262v-106q0 -44 21.5 -67.5t60.5 -23.5q37 0 58.5 21.5t21.5 58.5v209q0 58 -57 58h-101v217h101q57 0 57 59v197q0 38 -21.5 60t-58.5 22q-39 0 -60.5 -23.5t-21.5 -67.5v-108h-262v135 q0 61 21.5 118.5t62 104.5t106 75t146.5 28q166 0 268.5 -92.5t102.5 -241.5v-137q0 -90 -43 -152.5t-119 -79.5q76 -22 119 -80.5t43 -148.5v-160z" />
<glyph unicode="4" horiz-adv-x="821" d="M793 274h-101v-274h-270v274h-395v205l415 885h250v-860h101v-230zM422 504v338l-148 -338h148z" />
<glyph unicode="5" horiz-adv-x="802" d="M752 1364q-12 -135 -49.5 -196.5t-110.5 -61.5h-250l-18 -291q79 98 213 98q98 0 158.5 -68t60.5 -177v-365q0 -150 -102.5 -242t-268.5 -92q-157 0 -246.5 97.5t-89.5 226.5v127h262v-98q0 -44 21.5 -67.5t60.5 -23.5q37 0 58.5 21.5t21.5 58.5v307q0 31 -22.5 53.5 t-49.5 22.5q-26 0 -48.5 -19t-22.5 -42l-256 29l37 702h641z" />
<glyph unicode="6" d="M788 326q0 -160 -98 -258.5t-262 -98.5q-166 0 -264 98.5t-98 258.5v712q0 159 100.5 258t265.5 99q81 0 146.5 -28t106.5 -75t63 -104.5t22 -118.5v-129h-252v102q0 91 -82 91q-42 0 -64 -21t-22 -59v-318q74 92 195 92q115 0 179 -64.5t64 -172.5v-264zM504 301v256 q0 30 -20 49t-56 19t-57 -19t-21 -49v-256q0 -31 21 -50.5t57 -19.5t56 19t20 51z" />
<glyph unicode="7" horiz-adv-x="788" d="M764 1243q-148 -302 -218.5 -598t-74.5 -645h-321q7 286 101 590t224 500h-424v274h713v-121z" />
<glyph unicode="8" horiz-adv-x="862" d="M801 303q0 -151 -101 -242.5t-268 -91.5q-166 0 -267.5 91.5t-101.5 242.5v164q0 76 30 135t87 86q-57 27 -87 85.5t-30 135.5v152q0 149 101.5 241.5t267.5 92.5q167 0 268 -92t101 -242v-152q0 -76 -31 -135t-88 -86q57 -27 88 -86.5t31 -134.5v-164zM516 838v215 q0 36 -23.5 58t-60.5 22t-61.5 -22t-24.5 -58v-215q0 -36 24.5 -58t61.5 -22t60.5 22t23.5 58zM516 311v228q0 36 -23 56.5t-61 20.5t-62 -20.5t-24 -56.5v-228q0 -36 24.5 -58t61.5 -22t60.5 22t23.5 58z" />
<glyph unicode="9" horiz-adv-x="854" d="M788 326q0 -158 -105 -257.5t-271 -99.5q-81 0 -148.5 28.5t-110.5 74.5t-66.5 103.5t-23.5 117.5v104h252v-69q0 -97 93 -97q96 0 96 84v293q-77 -96 -195 -96q-115 0 -180.5 67.5t-65.5 176.5v282q0 160 98.5 257.5t264.5 97.5q165 0 263.5 -98t98.5 -257v-712z M504 776v287q0 30 -21 50t-57 20t-57 -20t-21 -50v-287q0 -30 21 -48.5t57 -18.5t57 18.5t21 48.5z" />
<glyph unicode=":" horiz-adv-x="335" d="M283 612h-230v289h230v-289zM283 0h-230v289h230v-289z" />
<glyph unicode=";" horiz-adv-x="335" d="M283 612h-230v289h230v-289zM283 27q0 -96 -64 -160t-166 -64v62q49 0 78 33t29 102h-107v289h230v-262z" />
<glyph unicode="&#x3c;" horiz-adv-x="950" d="M799 205l-695 450v56l695 448v-227l-373 -250l373 -250v-227z" />
<glyph unicode="=" horiz-adv-x="673" d="M635 786h-596v187h596v-187zM635 436h-596v187h596v-187z" />
<glyph unicode="&#x3e;" horiz-adv-x="950" d="M846 655l-692 -450v229l372 248l-372 250v227l692 -450v-54z" />
<glyph unicode="?" horiz-adv-x="753" d="M719 1055q0 -116 -47.5 -214.5t-149.5 -195.5q-104 -99 -104 -258h-185q0 129 28 217.5t108 210.5q80 119 80 203q0 62 -20 88.5t-62 26.5q-82 0 -82 -99v-121h-250v146q0 146 87 241t247 95q91 0 160.5 -27.5t109.5 -75.5t60 -107.5t20 -129.5zM432 0h-215v248h215v-248 z" />
<glyph unicode="@" horiz-adv-x="1286" d="M1245 735q0 -84 -23.5 -161t-66.5 -138t-111 -97t-151 -36q-97 0 -140 44.5t-40 125.5q-33 -73 -92 -113.5t-123 -40.5q-76 0 -124 55t-48 146q0 67 24 142t65 140t103.5 107.5t132.5 42.5q57 0 92 -31t41 -83l33 98h174l-125 -389q-22 -66 -5 -108t75 -42q86 0 146.5 94 t60.5 246q0 211 -134.5 343t-344.5 132q-149 0 -267.5 -77t-184 -209t-65.5 -293t65.5 -291t184 -204.5t267.5 -74.5q211 0 348 134l59 -72q-169 -156 -407 -156q-173 0 -314.5 86t-223 238.5t-81.5 339.5t81 341t223.5 242.5t314.5 88.5q117 0 215.5 -35.5t165 -93.5 t112.5 -133.5t67 -153t21 -154.5zM758 760q0 38 -18 60t-52 22q-56 0 -105 -61.5t-73.5 -132.5t-24.5 -120q0 -50 17.5 -74t56.5 -24q45 0 85 43.5t58 104.5z" />
<glyph unicode="A" d="M836 0h-316l-20 205h-187l-28 -205h-285l238 1364h364zM471 438l-53 496l-70 -496h123z" />
<glyph unicode="B" horiz-adv-x="864" d="M809 274q0 -133 -82.5 -203.5t-204.5 -70.5h-456v1364h456q122 0 204.5 -70.5t82.5 -203.5v-183q0 -78 -35 -136t-117 -77q152 -46 152 -213v-207zM514 856v195q0 65 -55 65h-78v-325h78q55 0 55 65zM514 311v199q0 65 -55 65h-78v-329h78q55 0 55 65z" />
<glyph unicode="C" horiz-adv-x="872" d="M827 326q0 -161 -98.5 -259t-265.5 -98q-177 0 -292.5 104t-115.5 271v676q0 166 116 270.5t292 104.5q167 0 265.5 -98.5t98.5 -258.5v-180h-276v184q0 36 -23 59t-65 23q-41 0 -63.5 -22.5t-22.5 -59.5v-720q0 -37 22.5 -59.5t63.5 -22.5q42 0 65 23t23 59v184h276 v-180z" />
<glyph unicode="D" horiz-adv-x="901" d="M846 342q0 -162 -104 -252t-277 -90h-399v1364h399q170 0 275.5 -101.5t105.5 -265.5v-655zM530 362v639q0 103 -88 103h-61v-846h61q88 0 88 104z" />
<glyph unicode="E" horiz-adv-x="774" d="M733 0h-667v1364h667v-264h-352v-283h229v-235h-229v-303h352v-279z" />
<glyph unicode="F" horiz-adv-x="731" d="M713 1112h-332v-299h229v-252h-229v-561h-315v1364h647v-252z" />
<glyph unicode="G" horiz-adv-x="901" d="M848 0h-176l-35 113q-33 -68 -96.5 -106t-137.5 -38q-157 0 -252.5 98.5t-95.5 243.5v742q0 134 113.5 237t284.5 103q170 0 278.5 -102.5t108.5 -237.5v-199h-301v199q0 32 -20.5 51.5t-59.5 19.5t-60.5 -19.5t-21.5 -51.5v-744q0 -31 23 -52t61 -21q40 0 62 20.5 t22 52.5v172h-86v203h389v-684z" />
<glyph unicode="H" horiz-adv-x="944" d="M879 0h-314v520h-184v-520h-315v1364h315v-565h184v565h314v-1364z" />
<glyph unicode="I" horiz-adv-x="446" d="M381 0h-315v1364h315v-1364z" />
<glyph unicode="J" horiz-adv-x="835" d="M778 322q0 -156 -108.5 -254.5t-276.5 -98.5q-166 0 -269.5 98t-103.5 255v221h299v-236q0 -31 20.5 -49t51.5 -18t51.5 18t20.5 49v1057h315v-1042z" />
<glyph unicode="K" horiz-adv-x="894" d="M889 0h-320l-123 518l-65 -176v-342h-315v1364h315v-590l180 590h305l-196 -567z" />
<glyph unicode="L" horiz-adv-x="731" d="M715 0h-649v1364h315v-1092h334v-272z" />
<glyph unicode="M" horiz-adv-x="1212" d="M1147 0h-303v918l-56 -336l-102 -582h-197l-94 582l-49 336v-918h-280v1364h413l99 -535l32 -239l33 239l94 535h410v-1364z" />
<glyph unicode="N" horiz-adv-x="937" d="M874 0h-260l-192 502l-78 192v-694h-278v1364h278l180 -508l74 -194v702h276v-1364z" />
<glyph unicode="O" horiz-adv-x="899" d="M844 326q0 -158 -112.5 -257.5t-280.5 -99.5q-170 0 -283 99.5t-113 257.5v712q0 156 113.5 255.5t282.5 99.5q168 0 280.5 -99.5t112.5 -255.5v-712zM522 307v750q0 31 -20.5 49t-50.5 18q-31 0 -52.5 -18t-21.5 -49v-750q0 -31 21.5 -49t52.5 -18q30 0 50.5 18t20.5 49 z" />
<glyph unicode="P" horiz-adv-x="845" d="M809 797q0 -142 -84 -221.5t-213 -79.5h-131v-496h-315v1364h446q129 0 213 -78.5t84 -220.5v-268zM514 788v263q0 65 -55 65h-78v-393h78q55 0 55 65z" />
<glyph unicode="Q" horiz-adv-x="903" d="M922 0q-42 -31 -125 -31q-45 0 -89 21t-69 49q-84 -70 -215 -70q-153 0 -261 100.5t-108 256.5v712q0 156 113.5 255.5t282.5 99.5q168 0 280.5 -99.5t112.5 -255.5v-690q0 -69 -21 -112q27 -27 99 -27v-209zM522 412v645q0 31 -20.5 49t-50.5 18q-31 0 -52.5 -18 t-21.5 -49v-750q0 -31 21.5 -49t52.5 -18q23 0 41 12l-54 51z" />
<glyph unicode="R" horiz-adv-x="874" d="M856 0h-262q-34 0 -54 66.5t-20 144.5v250q0 30 -18 54t-49 24h-72v-539h-315v1364h442q79 0 147 -32.5t112 -99.5t44 -155v-237q0 -53 -33.5 -103t-93.5 -78q61 -29 97 -78.5t36 -103.5v-250q0 -92 39 -221v-6zM512 829v222q0 65 -53 65h-78v-352h78q53 0 53 65z" />
<glyph unicode="S" horiz-adv-x="835" d="M799 352q0 -165 -104 -274t-275 -109q-180 0 -282.5 94t-102.5 261v98h274v-98q0 -45 26 -74t71 -29q90 0 90 103q0 33 -11.5 63.5t-40.5 65t-51 56t-69 65.5q-4 4 -7 6.5t-6 5.5q-56 46 -95.5 85t-83 93.5t-66.5 117t-23 128.5q0 76 24.5 144t71.5 122t122 85.5 t169 31.5q155 0 253.5 -100.5t98.5 -252.5v-88h-274v99q0 41 -22 64.5t-56 23.5t-59 -24t-25 -66q0 -27 7.5 -52t16.5 -42t31.5 -42.5t35 -38t46.5 -43.5t49 -45q49 -44 77.5 -71t70 -74t63.5 -86.5t39 -93t17 -109.5z" />
<glyph unicode="T" horiz-adv-x="792" d="M776 1094h-223v-1094h-315v1094h-222v270h760v-270z" />
<glyph unicode="U" horiz-adv-x="890" d="M827 307q0 -143 -105.5 -240.5t-270.5 -97.5q-164 0 -276 98.5t-112 239.5v1057h318v-1057q0 -31 20.5 -49t49.5 -18q32 0 52.5 18t20.5 49v1057h303v-1057z" />
<glyph unicode="V" horiz-adv-x="851" d="M854 1364l-279 -1364h-303l-272 1364h319l115 -827l121 827h299z" />
<glyph unicode="W" horiz-adv-x="1228" d="M1233 1364l-250 -1364h-266l-105 668l-108 -668h-262l-242 1364h305l105 -797l108 797h221l103 -797l112 797h279z" />
<glyph unicode="X" horiz-adv-x="868" d="M852 0h-324l-106 424l-131 -424h-297l246 682l-228 682h322l102 -436l125 436h299l-242 -649z" />
<glyph unicode="Y" horiz-adv-x="870" d="M877 1364l-291 -799v-565h-314v565l-274 799h321l132 -481l114 481h312z" />
<glyph unicode="Z" horiz-adv-x="780" d="M756 1292l-371 -1020h354v-272h-727v72l377 1032h-352v260h719v-72z" />
<glyph unicode="[" horiz-adv-x="579" d="M578 -307h-402v1849h402v-164h-226v-1525h226v-160z" />
<glyph unicode="\" horiz-adv-x="528" d="M522 -131h-145l-354 1624h145z" />
<glyph unicode="]" horiz-adv-x="579" d="M408 -307h-400v160h225v1525h-225v164h400v-1849z" />
<glyph unicode="^" horiz-adv-x="571" d="M545 1100q-49 -17 -90 -17q-65 0 -111 40t-63 118q-18 -78 -64.5 -118t-112.5 -40q-31 0 -77 17v63q49 0 94 51.5t69 149.5h189q25 -98 71 -149.5t95 -51.5v-63z" />
<glyph unicode="_" horiz-adv-x="690" d="M690 -188h-690v188h690v-188z" />
<glyph unicode="`" horiz-adv-x="382" d="M315 1108h-131l-168 287h228z" />
<glyph unicode="a" horiz-adv-x="710" d="M682 -16h-47q-137 0 -193 129q-60 -129 -204 -129q-91 0 -151 68.5t-60 187.5v34q0 129 84.5 205t275.5 137v152q0 25 -13 40t-36 15q-22 0 -34.5 -15t-12.5 -40v-96h-228v69q0 130 73 206.5t218 76.5q136 0 211.5 -81.5t75.5 -215.5v-516q0 -48 41 -51v-176zM387 227 v240q-61 -25 -88 -58.5t-27 -86.5v-86q0 -33 16 -51.5t44 -18.5q55 0 55 61z" />
<glyph unicode="b" horiz-adv-x="739" d="M682 244q0 -115 -53.5 -187.5t-157.5 -72.5q-128 0 -188 110l-21 -94h-196v1364h256v-455q32 54 76.5 84.5t95.5 30.5q81 0 134.5 -72.5t53.5 -171.5v-536zM430 258v490q0 29 -15.5 47t-37.5 18q-24 0 -39.5 -18t-15.5 -47v-490q0 -29 15.5 -47t39.5 -18q22 0 37.5 18 t15.5 47z" />
<glyph unicode="c" horiz-adv-x="684" d="M645 297q0 -147 -76.5 -230t-206.5 -83q-134 0 -219.5 84t-85.5 229v412q0 144 86 229.5t219 85.5q130 0 206.5 -84.5t76.5 -230.5v-86h-211v125q0 34 -16.5 54.5t-46.5 20.5q-31 0 -48.5 -20.5t-17.5 -54.5v-490q0 -34 18 -55t48 -21t46.5 20.5t16.5 55.5v127h211v-88z " />
<glyph unicode="d" horiz-adv-x="737" d="M674 0h-205l-10 94q-63 -110 -189 -110q-104 0 -158.5 72.5t-54.5 187.5v536q0 98 57.5 171t139.5 73q49 0 85.5 -20t78.5 -64v424h256v-1364zM418 258v490q0 29 -16 47t-40 18t-39.5 -18t-15.5 -47v-490q0 -29 15.5 -47t39.5 -18t40 18t16 47z" />
<glyph unicode="e" horiz-adv-x="712" d="M664 289q0 -133 -85.5 -219t-216.5 -86t-218 86t-87 219v430q0 132 87 218.5t218 86.5t216.5 -86t85.5 -219v-246h-357v-223q0 -68 60 -68q61 0 61 68v123h236v-84zM420 578v182q0 28 -16 46.5t-39 18.5q-25 0 -41.5 -18.5t-16.5 -46.5v-182h113z" />
<glyph unicode="f" horiz-adv-x="550" d="M530 788h-129v-788h-260v788h-108v207h108v54q0 315 318 315h65v-195h-24q-60 0 -81.5 -22.5t-21.5 -71.5v-80h133v-207z" />
<glyph unicode="g" horiz-adv-x="733" d="M760 1030q0 -60 -30 -96.5t-77 -36.5q-28 0 -63 18q78 -78 78 -178v-71q0 -125 -83.5 -203t-222.5 -78q-23 0 -51 4q-65 0 -65 -59q0 -28 30 -41t105 -13q167 0 247.5 -69.5t80.5 -198.5v-49q0 -136 -87 -213.5t-247 -77.5q-149 0 -242.5 67t-93.5 175v53q0 44 28.5 90.5 t69.5 69.5q-46 20 -69 58.5t-23 86.5q0 56 43 105t105 55q-60 20 -97 91t-37 153v63q0 123 86.5 206t216.5 83q29 0 65 -6t42 -6q60 0 79 24t19 76h187q6 -62 6 -82zM422 621v149q0 28 -16.5 46t-43.5 18t-43 -18t-16 -46v-149q0 -28 16 -46t43 -18t43.5 18t16.5 46z M481 -57v63q0 82 -102 82q-103 0 -103 -82v-63q0 -40 26.5 -61t76.5 -21q102 0 102 82z" />
<glyph unicode="h" horiz-adv-x="749" d="M690 0h-258v748q0 29 -15.5 47t-37.5 18q-24 0 -39.5 -18t-15.5 -47v-748h-258v1364h258v-463q67 121 186 121q84 0 132 -60.5t48 -162.5v-799z" />
<glyph unicode="i" horiz-adv-x="387" d="M322 1118h-256v230h256v-230zM324 0h-258v1006h258v-1006z" />
<glyph unicode="j" horiz-adv-x="387" d="M322 1118h-256v230h256v-230zM324 -4q0 -315 -318 -315h-63v194h22q60 0 80.5 21.5t20.5 70.5v1039h258v-1010z" />
<glyph unicode="k" horiz-adv-x="733" d="M715 0h-248l-92 373l-51 -135v-238h-258v1364h258v-786l129 430h249l-155 -437z" />
<glyph unicode="l" horiz-adv-x="387" d="M324 0h-258v1364h258v-1364z" />
<glyph unicode="m" horiz-adv-x="1118" d="M1057 0h-256v739q0 29 -16 47.5t-40 18.5q-22 0 -37.5 -18.5t-15.5 -47.5v-739h-260v750q0 29 -15.5 47t-37.5 18q-24 0 -39.5 -18t-15.5 -47v-750h-258v1006h225l28 -148q14 75 59.5 120.5t110.5 45.5q64 0 110 -46.5t65 -127.5q45 174 190 174q97 0 150 -66.5 t53 -183.5v-774z" />
<glyph unicode="n" horiz-adv-x="749" d="M690 0h-258v748q0 29 -15.5 47t-37.5 18q-24 0 -39.5 -18t-15.5 -47v-748h-258v1006h229l12 -132q21 66 77 107t120 41q89 0 137.5 -60t48.5 -163v-799z" />
<glyph unicode="o" horiz-adv-x="722" d="M666 297q0 -144 -85.5 -228.5t-218.5 -84.5q-134 0 -219.5 84t-85.5 229v412q0 144 86 229.5t219 85.5q132 0 218 -86t86 -229v-412zM416 248v510q0 27 -16 46t-38 19q-24 0 -39.5 -18.5t-15.5 -46.5v-510q0 -28 15.5 -47t39.5 -19q22 0 38 19.5t16 46.5z" />
<glyph unicode="p" horiz-adv-x="739" d="M682 225q0 -98 -56.5 -170.5t-138.5 -72.5q-49 0 -86 20.5t-79 63.5v-379h-256v1319h204l13 -95q60 111 188 111q104 0 157.5 -72.5t53.5 -187.5v-537zM430 258v490q0 29 -15.5 47t-37.5 18q-24 0 -39.5 -18t-15.5 -47v-490q0 -29 15.5 -47t39.5 -18q22 0 37.5 18 t15.5 47z" />
<glyph unicode="q" horiz-adv-x="737" d="M674 -313h-256v409q-67 -114 -174 -114q-80 0 -133.5 72t-53.5 171v537q0 115 54.5 187.5t158.5 72.5q126 0 189 -111l18 95h197v-1319zM418 258v490q0 29 -16 47t-40 18t-39.5 -18t-15.5 -47v-490q0 -29 15.5 -47t39.5 -18t40 18t16 47z" />
<glyph unicode="r" horiz-adv-x="569" d="M535 745q-110 18 -160.5 -17t-50.5 -107v-621h-258v1006h221l14 -166q20 102 83.5 148t150.5 26v-269z" />
<glyph unicode="s" horiz-adv-x="671" d="M637 274q0 -56 -17 -106.5t-50.5 -92.5t-92 -66.5t-133.5 -24.5q-144 0 -223.5 79.5t-79.5 212.5v50h219v-66q0 -82 70 -82q69 0 69 70q0 35 -18.5 63.5t-41 45t-67.5 47t-73 53.5q-45 34 -75 67.5t-52.5 88t-22.5 120.5q0 141 82 216t211 75t208 -84.5t79 -208.5v-37 h-217v56q0 35 -16 55t-46 20q-63 0 -63 -65q0 -27 17 -54t34 -43t59 -51q7 -5 38.5 -26.5t42 -29.5t38.5 -30.5t39.5 -37t31 -40.5t28 -50t15.5 -56.5t7 -67.5z" />
<glyph unicode="t" horiz-adv-x="512" d="M510 799h-131v-498q0 -190 53 -301h-264q-47 105 -47 301v498h-111v207h121v172l248 55v-227h131v-207z" />
<glyph unicode="u" horiz-adv-x="753" d="M688 0h-221l-10 131q-26 -66 -83.5 -106.5t-121.5 -40.5q-89 0 -139 60.5t-50 162.5v799h259v-748q0 -28 16.5 -46.5t38.5 -18.5q24 0 39.5 18t15.5 47v748h256v-1006z" />
<glyph unicode="v" horiz-adv-x="671" d="M664 1006l-224 -1006h-209l-221 1006h250l66 -441l20 -164l16 164l66 441h236z" />
<glyph unicode="w" horiz-adv-x="995" d="M991 1006l-207 -1006h-196l-70 397l-18 162l-21 -162l-69 -397h-199l-201 1006h248l53 -439l19 -178l16 178l60 439h204l60 -439l16 -178l19 178l55 439h231z" />
<glyph unicode="x" horiz-adv-x="718" d="M698 0h-260l-84 305l-84 -305h-256l187 498l-187 508h258l86 -308l82 308h258l-188 -471z" />
<glyph unicode="y" horiz-adv-x="673" d="M668 1006l-217 -1004q-19 -85 -39 -138t-56 -98t-93 -65t-140 -20h-60v194h37q53 0 74 19.5t33 78.5l16 88l-209 945h250l66 -441l20 -164l19 164l63 441h236z" />
<glyph unicode="z" horiz-adv-x="618" d="M588 901l-269 -659h256v-242h-546v104l272 676h-252v226h539v-105z" />
<glyph unicode="{" horiz-adv-x="616" d="M535 -307h-89q-148 0 -225.5 81t-77.5 206q0 71 25 148t55 130t55 109t25 90q0 54 -29 77t-104 23h-68v121h68q75 0 104 22t29 76q0 35 -25 91.5t-55 109.5t-55 129t-25 147q0 126 77.5 207.5t225.5 81.5h89v-158h-43q-113 0 -113 -135q0 -67 25 -141.5t50 -141 t25 -114.5q0 -92 -42 -142.5t-152 -74.5q110 -24 152 -74.5t42 -142.5q0 -48 -25 -123.5t-50 -159.5t-25 -151q0 -136 113 -136h43v-155z" />
<glyph unicode="|" horiz-adv-x="274" d="M209 -131h-143v1624h143v-1624z" />
<glyph unicode="}" horiz-adv-x="616" d="M514 557h-65q-75 0 -105.5 -23.5t-30.5 -76.5q0 -34 25.5 -90t55.5 -109t55.5 -130t25.5 -148q0 -125 -77.5 -206t-225.5 -81h-90v155h43q115 0 115 136q0 67 -26 151t-51.5 159.5t-25.5 123.5q0 92 43 142.5t154 74.5q-111 24 -154 74.5t-43 142.5q0 48 25.5 114.5 t51.5 141t26 141.5q0 135 -115 135h-43v158h90q148 0 225.5 -81.5t77.5 -207.5q0 -71 -25.5 -147t-55.5 -129t-55.5 -109.5t-25.5 -91.5q0 -53 30 -75.5t106 -22.5h65v-121z" />
<glyph unicode="~" horiz-adv-x="583" d="M559 721q0 -79 -40.5 -125.5t-119.5 -46.5q-40 0 -81 21.5t-74 43t-54 21.5q-45 0 -45 -49v-29h-92q-26 39 -26 84q0 80 39 126t118 46q40 0 81 -21t74.5 -42t55.5 -21q45 0 45 49v29h92q27 -46 27 -86z" />
<glyph unicode="&#xa1;" horiz-adv-x="397" d="M305 758h-215v248h215v-248zM328 -358h-258v591l88 392h82l88 -392v-591z" />
<glyph unicode="&#xa2;" horiz-adv-x="737" d="M299 1192v172h166v-174q94 -25 147.5 -104t53.5 -199v-86h-211v125q0 34 -17 54.5t-49 20.5q-30 0 -46.5 -20.5t-16.5 -54.5v-490q0 -34 16.5 -54t46.5 -20q32 0 49 20t17 54v127h211v-88q0 -118 -53.5 -197t-147.5 -104v-174h-166v172q-101 24 -162 104t-61 199v412 q0 120 61 200.5t162 104.5z" />
<glyph unicode="&#xa3;" horiz-adv-x="1001" d="M958 268q0 -134 -71.5 -216.5t-212.5 -82.5q-83 0 -156 28.5t-121 78.5q-65 -107 -198 -107q-87 0 -139 51t-52 125q0 86 59.5 140.5t165.5 54.5q73 0 134 -23q28 52 28 148q0 65 -24 108h-252v181h174q-68 133 -68 272q0 97 41 180t126 136t198 53q68 0 123.5 -21 t91.5 -54.5t60.5 -77t35 -87.5t10.5 -88v-129h-252v102q0 80 -69 80q-66 0 -66 -80q0 -53 12.5 -109t23.5 -86t36 -91h262v-181h-223q2 -18 2 -51q0 -156 -131 -274q73 -43 123 -43q102 0 102 114v93h227v-144zM299 170q-34 39 -84 39q-24 0 -37.5 -13t-13.5 -34 q0 -19 14 -32t39 -13t48 14t34 39z" />
<glyph unicode="&#xa5;" horiz-adv-x="944" d="M608 563v-121h230v-180h-230v-262h-286v262h-220v180h220v121h-220v180h160l-201 621h295l127 -475l117 475h283l-213 -621h168v-180h-230z" />
<glyph unicode="&#xa7;" horiz-adv-x="905" d="M848 539q0 -179 -127 -273q62 -61 90.5 -118.5t28.5 -141.5q0 -67 -22 -126t-66 -107t-118 -76.5t-169 -28.5q-186 0 -300 88t-114 236v57h275v-67q0 -42 30.5 -69.5t87.5 -27.5q59 0 89 29t30 78q0 32 -27 64t-70 60.5t-94.5 60t-103.5 68.5t-95 78.5t-70 98.5t-27 121 q0 77 34.5 145.5t90.5 108.5q-59 58 -90 115.5t-31 136.5q0 151 96 248.5t277 97.5q170 0 273 -94t103 -232v-45h-270v61q0 35 -20.5 56.5t-65.5 21.5q-96 0 -96 -82q0 -35 35 -72t87 -68.5t113.5 -74t113.5 -86t87 -107t35 -134.5zM602 469q0 98 -244 229 q-24 -10 -37.5 -36t-13.5 -56q0 -90 248 -221q47 23 47 84z" />
<glyph unicode="&#xa8;" horiz-adv-x="518" d="M487 1106h-184v217h184v-217zM215 1106h-184v217h184v-217z" />
<glyph unicode="&#xa9;" horiz-adv-x="1392" d="M1348 668q0 -178 -84.5 -328t-234.5 -238t-333 -88q-137 0 -258.5 52t-207.5 140t-135.5 208.5t-49.5 253.5q0 178 84 328t234 238.5t333 88.5t333 -88.5t234.5 -238.5t84.5 -328zM1245 668q0 155 -68.5 282.5t-195 203t-285.5 75.5q-158 0 -284.5 -75.5t-195.5 -203 t-69 -282.5q0 -154 69 -282t195.5 -204t284.5 -76q159 0 285.5 76t195 204t68.5 282zM918 549q0 -84 -57.5 -136.5t-153.5 -52.5q-98 0 -160 54.5t-62 138.5v229q0 84 62 138.5t160 54.5q96 0 153.5 -52t57.5 -137v-38h-101v36q0 45 -28 74t-80 29q-53 0 -81 -30t-28 -77 v-225q0 -46 28 -76t81 -30q52 0 80 28.5t28 73.5v39h101v-41z" />
<glyph unicode="&#xaa;" horiz-adv-x="632" d="M608 639h-63q-111 0 -158 96q-51 -96 -168 -96q-73 0 -121.5 50t-48.5 138v23q0 94 69 148.5t224 97.5v108q0 18 -10.5 28.5t-28.5 10.5q-39 0 -39 -39v-67h-186v47q0 95 60.5 152t178.5 57q110 0 172 -60t62 -159v-367q0 -20 11.5 -28.5t45.5 -8.5v-131zM342 819v170 q-50 -17 -71 -41t-21 -63v-60q0 -25 13 -39t36 -14q21 0 32 13t11 34z" />
<glyph unicode="&#xab;" horiz-adv-x="886" d="M829 0h-100q-25 116 -97.5 205.5t-174.5 120.5v141q101 31 173.5 121.5t98.5 204.5h100q0 -121 -33 -231.5t-89 -166.5q56 -55 89 -164t33 -231zM424 0h-102q-26 116 -98 205.5t-175 120.5v141q102 31 174.5 121t98.5 205h102q0 -121 -33.5 -231.5t-89.5 -166.5 q56 -55 89.5 -164t33.5 -231z" />
<glyph unicode="&#xad;" horiz-adv-x="501" d="M467 526h-430v191h430v-191z" />
<glyph unicode="&#xae;" horiz-adv-x="751" d="M709 1096q0 -139 -96 -235.5t-238 -96.5q-141 0 -236.5 96.5t-95.5 235.5t95.5 236.5t236.5 97.5t237.5 -97.5t96.5 -236.5zM649 1096q0 119 -76.5 199.5t-197.5 80.5q-120 0 -197.5 -80.5t-77.5 -199.5q0 -117 77.5 -198t197.5 -81q121 0 197.5 80.5t76.5 198.5z M520 926h-24q-66 0 -66 57v37q0 21 -13 34t-34 13h-68v-137h-65v330h141q53 0 79 -25.5t26 -69.5v-2q0 -62 -50 -71q26 -4 38 -25t12 -47v-35q0 -12 24 -12v-47zM428 1159v10q0 39 -43 39h-70v-92h66q47 0 47 43z" />
<glyph unicode="&#xaf;" horiz-adv-x="520" d="M496 1141h-471v143h471v-143z" />
<glyph unicode="&#xb0;" horiz-adv-x="555" d="M528 1149q0 -100 -71 -172t-181 -72q-108 0 -178.5 72.5t-70.5 171.5q0 100 71 173t178 73q109 0 180.5 -73t71.5 -173zM399 1149q0 60 -33 97.5t-90 37.5q-56 0 -88 -37.5t-32 -97.5q0 -61 32 -98t88 -37q58 0 90.5 37t32.5 98z" />
<glyph unicode="&#xb1;" horiz-adv-x="684" d="M639 152h-594v178h594v-178zM639 631h-207v-211h-180v211h-207v184h207v211h180v-211h207v-184z" />
<glyph unicode="&#xb4;" horiz-adv-x="382" d="M385 1395l-170 -287h-131l72 287h229z" />
<glyph unicode="&#xb6;" horiz-adv-x="1112" d="M1030 -319h-151v1472h-150v-1472h-149v710h-80q-187 0 -310.5 130t-123.5 339v33q0 211 123.5 341t310.5 130h530v-1683zM580 578v575h-39q-57 0 -89 -49.5t-32 -124.5v-240q0 -72 32 -116.5t89 -44.5h39z" />
<glyph unicode="&#xb7;" horiz-adv-x="335" d="M283 537h-230v288h230v-288z" />
<glyph unicode="&#xb8;" horiz-adv-x="374" d="M393 -299q0 -72 -55 -123t-133 -51q-46 0 -76 20v66h31q38 0 55.5 16.5t17.5 51.5v59q0 65 -73 65q-33 0 -70 -34l-65 47l165 231l66 -47l-104 -141q19 12 71 12q77 0 123.5 -47.5t46.5 -124.5z" />
<glyph unicode="&#xba;" horiz-adv-x="573" d="M535 872q0 -107 -70 -170t-178 -63t-178 63t-70 170v287q0 107 70 170.5t178 63.5t178 -63.5t70 -170.5v-287zM332 836v360q0 21 -13 34t-32 13t-32 -13t-13 -34v-360q0 -21 13 -34.5t32 -13.5t32 13.5t13 34.5z" />
<glyph unicode="&#xbb;" horiz-adv-x="886" d="M831 326q-102 -31 -174.5 -120.5t-97.5 -205.5h-100q0 121 33 230.5t88 164.5q-55 56 -88 167t-33 231h100q26 -114 98.5 -204.5t173.5 -121.5v-141zM426 326q-103 -31 -174.5 -120.5t-97.5 -205.5h-101q0 121 33 230.5t88 164.5q-55 56 -88 167t-33 231h101 q26 -115 98 -205t174 -121v-141z" />
<glyph unicode="&#xbf;" horiz-adv-x="706" d="M291 1006h217v-248h-217v248zM4 -49q0 116 47.5 213.5t149.5 195.5q104 99 104 258h184q0 -131 -27.5 -220t-107.5 -208q-78 -121 -78 -202q0 -62 19.5 -88.5t60.5 -26.5q84 0 84 98v121h250v-145q0 -146 -87 -241t-249 -95q-176 0 -263 96.5t-87 243.5z" />
<glyph unicode="&#xc0;" d="M836 0h-316l-20 205h-187l-28 -205h-285l238 1364h364zM471 438l-53 496l-70 -496h123zM481 1436h-131l-168 286h228z" />
<glyph unicode="&#xc1;" d="M836 0h-316l-20 205h-187l-28 -205h-285l238 1364h364zM471 438l-53 496l-70 -496h123zM649 1722l-170 -286h-131l72 286h229z" />
<glyph unicode="&#xc2;" d="M836 0h-316l-20 205h-187l-28 -205h-285l238 1364h364zM471 438l-53 496l-70 -496h123zM690 1442q-49 -17 -90 -17q-65 0 -110.5 40t-63.5 120q-18 -80 -63.5 -120t-110.5 -40q-31 0 -80 17v63q49 0 95 51.5t71 149.5h186q25 -98 71 -149.5t95 -51.5v-63z" />
<glyph unicode="&#xc3;" d="M836 0h-316l-20 205h-187l-28 -205h-285l238 1364h364zM471 438l-53 496l-70 -496h123zM682 1616q0 -79 -40.5 -125.5t-119.5 -46.5q-40 0 -81 21.5t-74 43t-54 21.5q-45 0 -45 -47v-31h-92q-26 39 -26 86q0 79 39 125.5t118 46.5q40 0 81 -21.5t74.5 -43t55.5 -21.5 q45 0 45 49v31h92q27 -46 27 -88z" />
<glyph unicode="&#xc4;" d="M836 0h-316l-20 205h-187l-28 -205h-285l238 1364h364zM471 438l-53 496l-70 -496h123zM651 1434h-184v217h184v-217zM379 1434h-184v217h184v-217z" />
<glyph unicode="&#xc5;" d="M281 1364q-29 47 -29 96q0 69 47 118.5t119 49.5t119 -49.5t47 -118.5q0 -49 -29 -96h47l234 -1364h-316l-20 205h-187l-28 -205h-285l238 1364h43zM500 1460q0 43 -22 68.5t-60 25.5t-60 -25.5t-22 -68.5q0 -42 22 -68t60 -26t60 26t22 68zM471 438l-53 496l-70 -496 h123z" />
<glyph unicode="&#xc6;" horiz-adv-x="1236" d="M1194 0h-668v205h-182l-47 -205h-297l371 1364h823v-264h-354v-281h231v-237h-231v-303h354v-279zM526 438v502l-125 -502h125z" />
<glyph unicode="&#xc7;" horiz-adv-x="872" d="M375 -23q-143 25 -231.5 124t-88.5 243v676q0 166 116 270.5t292 104.5q167 0 265.5 -98.5t98.5 -258.5v-180h-276v184q0 36 -23 59t-65 23q-41 0 -63.5 -22.5t-22.5 -59.5v-720q0 -37 22.5 -59.5t63.5 -22.5q42 0 65 23t23 59v184h276v-180q0 -160 -97 -258t-263 -99 q1 0 -19 -27.5t-40 -55.5l-21 -27q21 14 72 14q77 0 123.5 -47.5t46.5 -124.5q0 -72 -54.5 -123t-132.5 -51q-50 0 -75 20v66h28q74 0 74 68v59q0 65 -74 65q-32 0 -69 -34l-64 47z" />
<glyph unicode="&#xc8;" horiz-adv-x="774" d="M733 0h-667v1364h667v-264h-352v-283h229v-235h-229v-303h352v-279zM455 1436h-131l-168 286h227z" />
<glyph unicode="&#xc9;" horiz-adv-x="774" d="M733 0h-667v1364h667v-264h-352v-283h229v-235h-229v-303h352v-279zM604 1722l-170 -286h-131l72 286h229z" />
<glyph unicode="&#xca;" horiz-adv-x="774" d="M733 0h-667v1364h667v-264h-352v-283h229v-235h-229v-303h352v-279zM653 1442q-49 -17 -90 -17q-65 0 -110.5 40t-63.5 120q-18 -80 -63.5 -120t-110.5 -40q-31 0 -80 17v63q49 0 95 51.5t71 149.5h186q25 -98 71 -149.5t95 -51.5v-63z" />
<glyph unicode="&#xcb;" horiz-adv-x="774" d="M733 0h-667v1364h667v-264h-352v-283h229v-235h-229v-303h352v-279zM625 1434h-185v217h185v-217zM352 1434h-184v217h184v-217z" />
<glyph unicode="&#xcc;" horiz-adv-x="446" d="M381 0h-315v1364h315v-1364zM291 1436h-131l-168 286h227z" />
<glyph unicode="&#xcd;" horiz-adv-x="446" d="M381 0h-315v1364h315v-1364zM449 1722l-170 -286h-132l72 286h230z" />
<glyph unicode="&#xce;" horiz-adv-x="446" d="M381 0h-315v1364h315v-1364zM489 1442q-49 -17 -90 -17q-65 0 -110.5 40t-63.5 120q-18 -80 -63.5 -120t-110.5 -40q-31 0 -80 17v63q49 0 95 51.5t71 149.5h187q25 -98 70.5 -149.5t94.5 -51.5v-63z" />
<glyph unicode="&#xcf;" horiz-adv-x="446" d="M381 0h-315v1364h315v-1364zM451 1434h-185v217h185v-217zM178 1434h-184v217h184v-217z" />
<glyph unicode="&#xd0;" horiz-adv-x="931" d="M96 592h-114v180h114v592h402q169 0 274 -102t105 -267v-653q0 -161 -103.5 -251.5t-275.5 -90.5h-402v592zM412 772h73v-180h-73v-334h61q88 0 88 104v639q0 103 -88 103h-61v-332z" />
<glyph unicode="&#xd1;" horiz-adv-x="937" d="M874 0h-260l-192 502l-78 192v-694h-278v1364h278l180 -508l74 -194v702h276v-1364zM737 1616q0 -80 -40 -126t-119 -46q-40 0 -81 21.5t-74 43t-54 21.5q-45 0 -45 -47v-31h-93q-26 39 -26 86q0 79 39 125.5t118 46.5q40 0 81 -21.5t74.5 -43t55.5 -21.5q45 0 45 49v31 h93q26 -44 26 -88z" />
<glyph unicode="&#xd2;" horiz-adv-x="899" d="M844 326q0 -158 -112.5 -257.5t-280.5 -99.5q-170 0 -283 99.5t-113 257.5v712q0 156 113.5 255.5t282.5 99.5q168 0 280.5 -99.5t112.5 -255.5v-712zM522 307v750q0 31 -20.5 49t-50.5 18q-31 0 -52.5 -18t-21.5 -49v-750q0 -31 21.5 -49t52.5 -18q30 0 50.5 18t20.5 49 zM520 1436h-131l-168 286h228z" />
<glyph unicode="&#xd3;" horiz-adv-x="899" d="M844 326q0 -158 -112.5 -257.5t-280.5 -99.5q-170 0 -283 99.5t-113 257.5v712q0 156 113.5 255.5t282.5 99.5q168 0 280.5 -99.5t112.5 -255.5v-712zM522 307v750q0 31 -20.5 49t-50.5 18q-31 0 -52.5 -18t-21.5 -49v-750q0 -31 21.5 -49t52.5 -18q30 0 50.5 18t20.5 49 zM678 1722l-170 -286h-131l72 286h229z" />
<glyph unicode="&#xd4;" horiz-adv-x="899" d="M844 326q0 -158 -112.5 -257.5t-280.5 -99.5q-170 0 -283 99.5t-113 257.5v712q0 156 113.5 255.5t282.5 99.5q168 0 280.5 -99.5t112.5 -255.5v-712zM522 307v750q0 31 -20.5 49t-50.5 18q-31 0 -52.5 -18t-21.5 -49v-750q0 -31 21.5 -49t52.5 -18q30 0 50.5 18t20.5 49 zM713 1442q-49 -17 -90 -17q-65 0 -110.5 40t-63.5 120q-18 -80 -64 -120t-111 -40q-30 0 -79 17v63q49 0 94.5 51.5t70.5 149.5h187q25 -98 71 -149.5t95 -51.5v-63z" />
<glyph unicode="&#xd5;" horiz-adv-x="899" d="M844 326q0 -158 -112.5 -257.5t-280.5 -99.5q-170 0 -283 99.5t-113 257.5v712q0 156 113.5 255.5t282.5 99.5q168 0 280.5 -99.5t112.5 -255.5v-712zM522 307v750q0 31 -20.5 49t-50.5 18q-31 0 -52.5 -18t-21.5 -49v-750q0 -31 21.5 -49t52.5 -18q30 0 50.5 18t20.5 49 zM711 1616q0 -79 -40.5 -125.5t-119.5 -46.5q-40 0 -81 21.5t-74 43t-54 21.5q-45 0 -45 -47v-31h-92q-27 40 -27 86q0 79 39.5 125.5t118.5 46.5q40 0 81 -21.5t74.5 -43t55.5 -21.5q45 0 45 49v31h92q27 -46 27 -88z" />
<glyph unicode="&#xd6;" horiz-adv-x="899" d="M844 326q0 -158 -112.5 -257.5t-280.5 -99.5q-170 0 -283 99.5t-113 257.5v712q0 156 113.5 255.5t282.5 99.5q168 0 280.5 -99.5t112.5 -255.5v-712zM522 307v750q0 31 -20.5 49t-50.5 18q-31 0 -52.5 -18t-21.5 -49v-750q0 -31 21.5 -49t52.5 -18q30 0 50.5 18t20.5 49 zM680 1434h-184v217h184v-217zM408 1434h-185v217h185v-217z" />
<glyph unicode="&#xd7;" horiz-adv-x="849" d="M756 487l-138 -137l-194 197l-195 -197l-135 135l195 195l-195 197l137 135l195 -195l195 195l135 -135l-197 -193z" />
<glyph unicode="&#xd8;" horiz-adv-x="899" d="M96 162q-41 71 -41 164v712q0 157 112.5 256t281.5 99q154 0 268 -84l71 125l105 -66l-90 -166q41 -71 41 -164v-712q0 -158 -112.5 -257.5t-282.5 -99.5q-159 0 -267 88l-71 -127l-107 66zM377 684l145 272v101q0 31 -21 49t-52 18q-29 0 -50.5 -18t-21.5 -49v-373z M522 680l-145 -272v-101q0 -31 21.5 -49t50.5 -18q31 0 52 18t21 49v373z" />
<glyph unicode="&#xd9;" horiz-adv-x="890" d="M827 307q0 -143 -105.5 -240.5t-270.5 -97.5q-164 0 -276 98.5t-112 239.5v1057h318v-1057q0 -31 20.5 -49t49.5 -18q32 0 52.5 18t20.5 49v1057h303v-1057zM512 1436h-131l-168 286h227z" />
<glyph unicode="&#xda;" horiz-adv-x="890" d="M827 307q0 -143 -105.5 -240.5t-270.5 -97.5q-164 0 -276 98.5t-112 239.5v1057h318v-1057q0 -31 20.5 -49t49.5 -18q32 0 52.5 18t20.5 49v1057h303v-1057zM682 1722l-170 -286h-131l72 286h229z" />
<glyph unicode="&#xdb;" horiz-adv-x="890" d="M827 307q0 -143 -105.5 -240.5t-270.5 -97.5q-164 0 -276 98.5t-112 239.5v1057h318v-1057q0 -31 20.5 -49t49.5 -18q32 0 52.5 18t20.5 49v1057h303v-1057zM715 1442q-49 -17 -90 -17q-65 0 -110.5 40t-63.5 120q-18 -80 -64 -120t-111 -40q-30 0 -79 17v63 q49 0 94.5 51.5t70.5 149.5h187q25 -98 71 -149.5t95 -51.5v-63z" />
<glyph unicode="&#xdc;" horiz-adv-x="890" d="M827 307q0 -143 -105.5 -240.5t-270.5 -97.5q-164 0 -276 98.5t-112 239.5v1057h318v-1057q0 -31 20.5 -49t49.5 -18q32 0 52.5 18t20.5 49v1057h303v-1057zM680 1434h-184v217h184v-217zM408 1434h-185v217h185v-217z" />
<glyph unicode="&#xdd;" horiz-adv-x="870" d="M877 1364l-291 -799v-565h-314v565l-274 799h321l132 -481l114 481h312zM668 1722l-170 -286h-131l71 286h230z" />
<glyph unicode="&#xde;" horiz-adv-x="845" d="M809 575q0 -142 -84 -221.5t-213 -79.5h-131v-274h-315v1364h315v-223h131q129 0 213 -78.5t84 -220.5v-267zM514 567v262q0 64 -55 64h-78v-391h78q55 0 55 65z" />
<glyph unicode="&#xdf;" horiz-adv-x="774" d="M717 254q0 -127 -66 -198.5t-166 -71.5q-50 0 -100 22v148q76 0 76 90v288q0 51 -15 77t-57 26v194q98 0 98 103v145q0 46 -19.5 73.5t-59.5 27.5t-61 -29.5t-21 -75.5v-1073h-260v1038q0 157 87 246.5t240 89.5t234.5 -86.5t81.5 -236.5v-105q0 -77 -30.5 -138.5 t-86.5 -88.5q68 -32 96.5 -86t28.5 -144v-235z" />
<glyph unicode="&#xe0;" horiz-adv-x="710" d="M682 -16h-47q-137 0 -193 129q-60 -129 -204 -129q-91 0 -151 68.5t-60 187.5v34q0 129 84.5 205t275.5 137v152q0 25 -13 40t-36 15q-22 0 -34.5 -15t-12.5 -40v-96h-228v69q0 130 73 206.5t218 76.5q136 0 211.5 -81.5t75.5 -215.5v-516q0 -48 41 -51v-176zM387 227 v240q-61 -25 -88 -58.5t-27 -86.5v-86q0 -33 16 -51.5t44 -18.5q55 0 55 61zM430 1108h-131l-168 287h227z" />
<glyph unicode="&#xe1;" horiz-adv-x="710" d="M682 -16h-47q-137 0 -193 129q-60 -129 -204 -129q-91 0 -151 68.5t-60 187.5v34q0 129 84.5 205t275.5 137v152q0 25 -13 40t-36 15q-22 0 -34.5 -15t-12.5 -40v-96h-228v69q0 130 73 206.5t218 76.5q136 0 211.5 -81.5t75.5 -215.5v-516q0 -48 41 -51v-176zM387 227 v240q-61 -25 -88 -58.5t-27 -86.5v-86q0 -33 16 -51.5t44 -18.5q55 0 55 61zM588 1395l-170 -287h-131l71 287h230z" />
<glyph unicode="&#xe2;" horiz-adv-x="710" d="M682 -16h-47q-137 0 -193 129q-60 -129 -204 -129q-91 0 -151 68.5t-60 187.5v34q0 129 84.5 205t275.5 137v152q0 25 -13 40t-36 15q-22 0 -34.5 -15t-12.5 -40v-96h-228v69q0 130 73 206.5t218 76.5q136 0 211.5 -81.5t75.5 -215.5v-516q0 -48 41 -51v-176zM387 227 v240q-61 -25 -88 -58.5t-27 -86.5v-86q0 -33 16 -51.5t44 -18.5q55 0 55 61zM616 1114q-46 -16 -90 -16q-65 0 -110.5 39.5t-63.5 119.5q-18 -80 -63.5 -119.5t-110.5 -39.5q-34 0 -80 16v64q49 0 95 51t71 149h187q25 -98 70.5 -149t94.5 -51v-64z" />
<glyph unicode="&#xe3;" horiz-adv-x="710" d="M682 -16h-47q-137 0 -193 129q-60 -129 -204 -129q-91 0 -151 68.5t-60 187.5v34q0 129 84.5 205t275.5 137v152q0 25 -13 40t-36 15q-22 0 -34.5 -15t-12.5 -40v-96h-228v69q0 130 73 206.5t218 76.5q136 0 211.5 -81.5t75.5 -215.5v-516q0 -48 41 -51v-176zM387 227 v240q-61 -25 -88 -58.5t-27 -86.5v-86q0 -33 16 -51.5t44 -18.5q55 0 55 61zM614 1288q0 -80 -40 -126t-119 -46q-40 0 -81 21.5t-74 43t-54 21.5q-45 0 -45 -47v-31h-92q-27 40 -27 86q0 79 39.5 125.5t118.5 46.5q40 0 81 -21.5t74.5 -43t55.5 -21.5q45 0 45 50v30h92 q26 -44 26 -88z" />
<glyph unicode="&#xe4;" horiz-adv-x="710" d="M682 -16h-47q-137 0 -193 129q-60 -129 -204 -129q-91 0 -151 68.5t-60 187.5v34q0 129 84.5 205t275.5 137v152q0 25 -13 40t-36 15q-22 0 -34.5 -15t-12.5 -40v-96h-228v69q0 130 73 206.5t218 76.5q136 0 211.5 -81.5t75.5 -215.5v-516q0 -48 41 -51v-176zM387 227 v240q-61 -25 -88 -58.5t-27 -86.5v-86q0 -33 16 -51.5t44 -18.5q55 0 55 61zM582 1106h-185v217h185v-217zM309 1106h-184v217h184v-217z" />
<glyph unicode="&#xe5;" horiz-adv-x="710" d="M682 -16h-47q-137 0 -193 129q-60 -129 -204 -129q-91 0 -151 68.5t-60 187.5v34q0 129 84.5 205t275.5 137v152q0 25 -13 40t-36 15q-22 0 -34.5 -15t-12.5 -40v-96h-228v69q0 130 73 206.5t218 76.5q136 0 211.5 -81.5t75.5 -215.5v-516q0 -48 41 -51v-176zM387 227 v240q-61 -25 -88 -58.5t-27 -86.5v-86q0 -33 16 -51.5t44 -18.5q55 0 55 61zM514 1264q0 -68 -48 -118t-118 -50q-73 0 -119.5 50t-46.5 118q0 70 46.5 120t119.5 50q71 0 118.5 -50.5t47.5 -119.5zM428 1264q0 43 -21 68.5t-59 25.5t-60 -25.5t-22 -68.5q0 -42 22 -68.5 t60 -26.5q37 0 58.5 26.5t21.5 68.5z" />
<glyph unicode="&#xe6;" horiz-adv-x="1073" d="M1026 289q0 -136 -74 -220.5t-202 -84.5q-65 0 -128.5 28.5t-95.5 73.5q-73 -102 -256 -102q-115 0 -179 70t-64 186v34q0 129 84.5 205t275.5 137v142q0 25 -14 40t-37 15q-22 0 -34.5 -15t-12.5 -40v-86h-228v69q0 128 70.5 205.5t196.5 77.5q127 0 198 -104 q34 46 96.5 75t127.5 29q128 0 202 -84.5t74 -220.5v-246h-356v-215q0 -65 59 -65q31 0 46.5 18t15.5 47v115h235v-84zM780 578v172q0 29 -15 47t-40 18q-24 0 -39.5 -18t-15.5 -47v-172h110zM387 236v231q-61 -25 -88 -58.5t-27 -86.5v-76q0 -34 16 -53t44 -19q27 0 41 17 t14 45z" />
<glyph unicode="&#xe7;" horiz-adv-x="684" d="M291 -8q-105 21 -169.5 101.5t-64.5 203.5v412q0 144 86 229.5t219 85.5q130 0 206.5 -84.5t76.5 -230.5v-86h-211v125q0 34 -16.5 54.5t-46.5 20.5q-31 0 -48.5 -20.5t-17.5 -54.5v-490q0 -34 18 -55t48 -21t46.5 20.5t16.5 55.5v127h211v-88q0 -140 -69.5 -222.5 t-190.5 -90.5l-92 -123q19 12 72 12q77 0 123.5 -47.5t46.5 -124.5q0 -72 -55.5 -123t-133.5 -51q-51 0 -76 20v66h31q74 0 74 68v59q0 65 -74 65q-35 0 -72 -34l-63 47z" />
<glyph unicode="&#xe8;" horiz-adv-x="712" d="M664 289q0 -133 -85.5 -219t-216.5 -86t-218 86t-87 219v430q0 132 87 218.5t218 86.5t216.5 -86t85.5 -219v-246h-357v-223q0 -68 60 -68q61 0 61 68v123h236v-84zM420 578v182q0 28 -16 46.5t-39 18.5q-25 0 -41.5 -18.5t-16.5 -46.5v-182h113zM436 1108h-131l-168 287 h228z" />
<glyph unicode="&#xe9;" horiz-adv-x="712" d="M664 289q0 -133 -85.5 -219t-216.5 -86t-218 86t-87 219v430q0 132 87 218.5t218 86.5t216.5 -86t85.5 -219v-246h-357v-223q0 -68 60 -68q61 0 61 68v123h236v-84zM420 578v182q0 28 -16 46.5t-39 18.5q-25 0 -41.5 -18.5t-16.5 -46.5v-182h113zM598 1395l-170 -287 h-131l72 287h229z" />
<glyph unicode="&#xea;" horiz-adv-x="712" d="M664 289q0 -133 -85.5 -219t-216.5 -86t-218 86t-87 219v430q0 132 87 218.5t218 86.5t216.5 -86t85.5 -219v-246h-357v-223q0 -68 60 -68q61 0 61 68v123h236v-84zM420 578v182q0 28 -16 46.5t-39 18.5q-25 0 -41.5 -18.5t-16.5 -46.5v-182h113zM625 1114 q-46 -16 -90 -16q-65 0 -111 40t-64 119q-18 -80 -63.5 -119.5t-110.5 -39.5q-34 0 -80 16v64q49 0 95 51t71 149h187q25 -98 71 -149t95 -51v-64z" />
<glyph unicode="&#xeb;" horiz-adv-x="712" d="M664 289q0 -133 -85.5 -219t-216.5 -86t-218 86t-87 219v430q0 132 87 218.5t218 86.5t216.5 -86t85.5 -219v-246h-357v-223q0 -68 60 -68q61 0 61 68v123h236v-84zM420 578v182q0 28 -16 46.5t-39 18.5q-25 0 -41.5 -18.5t-16.5 -46.5v-182h113zM588 1106h-185v217h185 v-217zM315 1106h-184v217h184v-217z" />
<glyph unicode="&#xec;" horiz-adv-x="387" d="M324 0h-258v1006h258v-1006zM258 1108h-131l-168 287h227z" />
<glyph unicode="&#xed;" horiz-adv-x="387" d="M324 0h-258v1006h258v-1006zM430 1395l-170 -287h-131l72 287h229z" />
<glyph unicode="&#xee;" horiz-adv-x="387" d="M324 0h-258v1006h258v-1006zM459 1114q-46 -16 -90 -16q-65 0 -110.5 39.5t-63.5 119.5q-18 -79 -64 -119t-111 -40q-33 0 -79 16v64q49 0 94.5 51t70.5 149h187q25 -98 71 -149t95 -51v-64z" />
<glyph unicode="&#xef;" horiz-adv-x="387" d="M324 0h-258v1006h258v-1006zM422 1106h-184v217h184v-217zM150 1106h-185v217h185v-217z" />
<glyph unicode="&#xf0;" horiz-adv-x="731" d="M520 1286l117 45l39 -94l-96 -39q94 -166 94 -383v-518q0 -144 -89.5 -228.5t-224.5 -84.5q-132 0 -217.5 84.5t-85.5 228.5v459q0 98 57 171.5t138 73.5q49 0 85.5 -19.5t76.5 -61.5q-12 107 -52 188l-133 -53l-36 94l118 49q-58 84 -164 160v6h302q42 -39 71 -78z M307 248q0 -28 15.5 -47t37.5 -19q23 0 39.5 19t16.5 47v500q0 29 -15 47t-39 18t-39.5 -18t-15.5 -47v-500z" />
<glyph unicode="&#xf1;" horiz-adv-x="749" d="M690 0h-258v748q0 29 -15.5 47t-37.5 18q-24 0 -39.5 -18t-15.5 -47v-748h-258v1006h229l12 -132q21 66 77 107t120 41q89 0 137.5 -60t48.5 -163v-799zM633 1288q0 -79 -40.5 -125.5t-119.5 -46.5q-40 0 -81 21.5t-74 43t-54 21.5q-45 0 -45 -47v-31h-92q-27 40 -27 86 q0 79 39.5 125.5t118.5 46.5q40 0 81 -21.5t74.5 -43t55.5 -21.5q45 0 45 50v30h92q27 -46 27 -88z" />
<glyph unicode="&#xf2;" horiz-adv-x="722" d="M666 297q0 -144 -85.5 -228.5t-218.5 -84.5q-134 0 -219.5 84t-85.5 229v412q0 144 86 229.5t219 85.5q132 0 218 -86t86 -229v-412zM416 248v510q0 27 -16 46t-38 19q-24 0 -39.5 -18.5t-15.5 -46.5v-510q0 -28 15.5 -47t39.5 -19q22 0 38 19.5t16 46.5zM432 1108h-131 l-168 287h227z" />
<glyph unicode="&#xf3;" horiz-adv-x="722" d="M666 297q0 -144 -85.5 -228.5t-218.5 -84.5q-134 0 -219.5 84t-85.5 229v412q0 144 86 229.5t219 85.5q132 0 218 -86t86 -229v-412zM416 248v510q0 27 -16 46t-38 19q-24 0 -39.5 -18.5t-15.5 -46.5v-510q0 -28 15.5 -47t39.5 -19q22 0 38 19.5t16 46.5zM602 1395 l-170 -287h-131l72 287h229z" />
<glyph unicode="&#xf4;" horiz-adv-x="722" d="M666 297q0 -144 -85.5 -228.5t-218.5 -84.5q-134 0 -219.5 84t-85.5 229v412q0 144 86 229.5t219 85.5q132 0 218 -86t86 -229v-412zM416 248v510q0 27 -16 46t-38 19q-24 0 -39.5 -18.5t-15.5 -46.5v-510q0 -28 15.5 -47t39.5 -19q22 0 38 19.5t16 46.5zM631 1114 q-46 -16 -90 -16q-65 0 -110.5 39.5t-63.5 119.5q-18 -80 -63.5 -119.5t-110.5 -39.5q-34 0 -80 16v64q49 0 95 51t71 149h186q25 -98 71 -149t95 -51v-64z" />
<glyph unicode="&#xf5;" horiz-adv-x="722" d="M666 297q0 -144 -85.5 -228.5t-218.5 -84.5q-134 0 -219.5 84t-85.5 229v412q0 144 86 229.5t219 85.5q132 0 218 -86t86 -229v-412zM416 248v510q0 27 -16 46t-38 19q-24 0 -39.5 -18.5t-15.5 -46.5v-510q0 -28 15.5 -47t39.5 -19q22 0 38 19.5t16 46.5zM629 1288 q0 -79 -40.5 -125.5t-119.5 -46.5q-40 0 -81 21.5t-74 43t-54 21.5q-45 0 -45 -47v-31h-92q-27 40 -27 86q0 79 39.5 125.5t118.5 46.5q40 0 81 -21.5t74.5 -43t55.5 -21.5q45 0 45 50v30h92q27 -46 27 -88z" />
<glyph unicode="&#xf6;" horiz-adv-x="722" d="M666 297q0 -144 -85.5 -228.5t-218.5 -84.5q-134 0 -219.5 84t-85.5 229v412q0 144 86 229.5t219 85.5q132 0 218 -86t86 -229v-412zM416 248v510q0 27 -16 46t-38 19q-24 0 -39.5 -18.5t-15.5 -46.5v-510q0 -28 15.5 -47t39.5 -19q22 0 38 19.5t16 46.5zM590 1106h-184 v217h184v-217zM317 1106h-184v217h184v-217z" />
<glyph unicode="&#xf7;" horiz-adv-x="684" d="M639 612h-594v187h594v-187zM442 885h-198v182h198v-182zM442 344h-198v180h198v-180z" />
<glyph unicode="&#xf8;" horiz-adv-x="722" d="M90 158q-33 64 -33 141v410q0 143 85.5 229t217.5 86q130 0 209 -82l80 125l80 -59l-98 -160q35 -59 35 -141v-410q0 -144 -86 -228.5t-220 -84.5q-126 0 -208 79l-78 -122l-78 59zM307 510l109 174v74q0 28 -16.5 46.5t-39.5 18.5t-38 -18.5t-15 -46.5v-248zM416 494 l-109 -175v-71q0 -28 15 -47t38 -19t39.5 19t16.5 47v246z" />
<glyph unicode="&#xf9;" horiz-adv-x="753" d="M688 0h-221l-10 131q-26 -66 -83.5 -106.5t-121.5 -40.5q-89 0 -139 60.5t-50 162.5v799h259v-748q0 -28 16.5 -46.5t38.5 -18.5q24 0 39.5 18t15.5 47v748h256v-1006zM442 1108h-131l-168 287h228z" />
<glyph unicode="&#xfa;" horiz-adv-x="753" d="M688 0h-221l-10 131q-26 -66 -83.5 -106.5t-121.5 -40.5q-89 0 -139 60.5t-50 162.5v799h259v-748q0 -28 16.5 -46.5t38.5 -18.5q24 0 39.5 18t15.5 47v748h256v-1006zM610 1395l-170 -287h-131l72 287h229z" />
<glyph unicode="&#xfb;" horiz-adv-x="753" d="M688 0h-221l-10 131q-26 -66 -83.5 -106.5t-121.5 -40.5q-89 0 -139 60.5t-50 162.5v799h259v-748q0 -28 16.5 -46.5t38.5 -18.5q24 0 39.5 18t15.5 47v748h256v-1006zM641 1114q-46 -16 -90 -16q-65 0 -110.5 39.5t-63.5 119.5q-18 -80 -63.5 -119.5t-110.5 -39.5 q-34 0 -80 16v64q49 0 95 51t71 149h186q25 -98 71 -149t95 -51v-64z" />
<glyph unicode="&#xfc;" horiz-adv-x="753" d="M688 0h-221l-10 131q-26 -66 -83.5 -106.5t-121.5 -40.5q-89 0 -139 60.5t-50 162.5v799h259v-748q0 -28 16.5 -46.5t38.5 -18.5q24 0 39.5 18t15.5 47v748h256v-1006zM606 1106h-184v217h184v-217zM334 1106h-184v217h184v-217z" />
<glyph unicode="&#xfd;" horiz-adv-x="673" d="M668 1006l-217 -1004q-19 -85 -39 -138t-56 -98t-93 -65t-140 -20h-60v194h37q53 0 74 19.5t33 78.5l16 88l-209 945h250l66 -441l20 -164l19 164l63 441h236zM578 1395l-170 -287h-132l72 287h230z" />
<glyph unicode="&#xfe;" horiz-adv-x="739" d="M682 225q0 -98 -57.5 -170.5t-139.5 -72.5q-50 0 -86.5 20.5t-76.5 63.5v-379h-256v1677h256v-426q39 44 76 64t87 20q82 0 139.5 -73t57.5 -171v-553zM430 258v490q0 28 -15.5 46.5t-37.5 18.5q-23 0 -39 -18.5t-16 -46.5v-490q0 -29 15.5 -47t39.5 -18q22 0 37.5 18 t15.5 47z" />
<glyph unicode="&#xff;" horiz-adv-x="673" d="M668 1006l-217 -1004q-19 -85 -39 -138t-56 -98t-93 -65t-140 -20h-60v194h37q53 0 74 19.5t33 78.5l16 88l-209 945h250l66 -441l20 -164l19 164l63 441h236zM578 1106h-185v217h185v-217zM305 1106h-184v217h184v-217z" />
<glyph unicode="&#x152;" horiz-adv-x="1239" d="M1196 0h-754q-172 0 -275.5 90.5t-103.5 251.5v655q0 164 105 265.5t274 101.5h754v-264h-352v-281h229v-237h-229v-303h352v-279zM528 258v848h-61q-88 0 -88 -105v-639q0 -104 88 -104h61z" />
<glyph unicode="&#x153;" horiz-adv-x="1105" d="M1059 289q0 -136 -75 -220.5t-202 -84.5q-66 0 -128.5 28.5t-94.5 73.5q-33 -47 -95.5 -74.5t-129.5 -27.5q-129 0 -203 83t-74 230v412q0 146 74 230.5t203 84.5q68 0 130 -28t95 -76q34 46 96.5 75t126.5 29q127 0 202 -84.5t75 -220.5v-246h-359v-215q0 -29 15.5 -47 t46.5 -18q59 0 59 65v115h238v-84zM813 578v172q0 29 -15 47t-40 18t-41.5 -18t-16.5 -47v-172h113zM416 258v490q0 29 -16 47t-40 18t-39.5 -18t-15.5 -47v-490q0 -29 15.5 -47t39.5 -18t40 18t16 47z" />
<glyph unicode="&#x178;" horiz-adv-x="870" d="M877 1364l-291 -799v-565h-314v565l-274 799h321l132 -481l114 481h312zM672 1434h-185v217h185v-217zM399 1434h-184v217h184v-217z" />
<glyph unicode="&#x2c6;" horiz-adv-x="571" d="M545 1114q-46 -16 -90 -16q-65 0 -110.5 39.5t-63.5 119.5q-18 -79 -64 -119t-111 -40q-33 0 -79 16v64q49 0 95 51t71 149h186q25 -98 71 -149t95 -51v-64z" />
<glyph unicode="&#x2dc;" horiz-adv-x="583" d="M559 1288q0 -79 -40.5 -125.5t-119.5 -46.5q-40 0 -81 21.5t-74 43t-54 21.5q-45 0 -45 -47v-31h-92q-26 39 -26 86q0 79 39 125.5t118 46.5q40 0 81 -21.5t74.5 -43t55.5 -21.5q45 0 45 50v30h92q27 -46 27 -88z" />
<glyph unicode="&#x2000;" horiz-adv-x="861" />
<glyph unicode="&#x2001;" horiz-adv-x="1722" />
<glyph unicode="&#x2002;" horiz-adv-x="861" />
<glyph unicode="&#x2003;" horiz-adv-x="1722" />
<glyph unicode="&#x2004;" horiz-adv-x="574" />
<glyph unicode="&#x2005;" horiz-adv-x="430" />
<glyph unicode="&#x2006;" horiz-adv-x="287" />
<glyph unicode="&#x2007;" horiz-adv-x="287" />
<glyph unicode="&#x2008;" horiz-adv-x="215" />
<glyph unicode="&#x2009;" horiz-adv-x="344" />
<glyph unicode="&#x200a;" horiz-adv-x="95" />
<glyph unicode="&#x2010;" horiz-adv-x="501" d="M467 526h-430v191h430v-191z" />
<glyph unicode="&#x2011;" horiz-adv-x="501" d="M467 526h-430v191h430v-191z" />
<glyph unicode="&#x2012;" horiz-adv-x="501" d="M467 526h-430v191h430v-191z" />
<glyph unicode="&#x2013;" horiz-adv-x="972" d="M846 526h-717v191h717v-191z" />
<glyph unicode="&#x2014;" horiz-adv-x="1460" d="M1333 526h-1204v191h1204v-191z" />
<glyph unicode="&#x2018;" horiz-adv-x="335" d="M55 1145q0 95 63.5 159t164.5 64v-61q-47 0 -77 -34t-30 -102h107v-288h-228v262z" />
<glyph unicode="&#x2019;" horiz-adv-x="335" d="M283 1100q0 -94 -64 -157.5t-166 -63.5v61q49 0 78 33t29 102h-107v289h230v-264z" />
<glyph unicode="&#x201a;" horiz-adv-x="335" d="M283 27q0 -96 -64 -160t-166 -64v62q49 0 78 33t29 102h-107v289h230v-262z" />
<glyph unicode="&#x201c;" horiz-adv-x="616" d="M336 1145q0 96 63.5 159.5t165.5 63.5v-61q-48 0 -77 -33.5t-29 -102.5h106v-288h-229v262zM55 1145q0 95 63.5 159t164.5 64v-61q-47 0 -77 -34t-30 -102h107v-288h-228v262z" />
<glyph unicode="&#x201d;" horiz-adv-x="616" d="M563 1100q0 -94 -63 -157.5t-164 -63.5v61q47 0 76.5 33.5t29.5 101.5h-106v289h227v-264zM283 1100q0 -94 -64 -157.5t-166 -63.5v61q49 0 78 33t29 102h-107v289h230v-264z" />
<glyph unicode="&#x201e;" horiz-adv-x="616" d="M563 27q0 -96 -63 -160t-164 -64v62q47 0 76.5 33.5t29.5 101.5h-106v289h227v-262zM283 27q0 -96 -64 -160t-166 -64v62q49 0 78 33t29 102h-107v289h230v-262z" />
<glyph unicode="&#x2022;" horiz-adv-x="559" d="M518 682q0 -112 -66.5 -177t-170.5 -65q-105 0 -172.5 65t-67.5 177t67.5 177t172.5 65q104 0 170.5 -65t66.5 -177z" />
<glyph unicode="&#x2026;" horiz-adv-x="1042" d="M989 0h-229v289h229v-289zM635 0h-227v289h227v-289zM283 0h-230v289h230v-289z" />
<glyph unicode="&#x202f;" horiz-adv-x="344" />
<glyph unicode="&#x2039;" horiz-adv-x="479" d="M424 0h-102q-26 116 -98 205.5t-175 120.5v141q102 31 174.5 121t98.5 205h102q0 -121 -33.5 -231.5t-89.5 -166.5q56 -55 89.5 -164t33.5 -231z" />
<glyph unicode="&#x203a;" horiz-adv-x="479" d="M428 326q-102 -31 -174.5 -120.5t-97.5 -205.5h-101q0 122 33.5 231t89.5 164q-56 56 -89.5 166.5t-33.5 231.5h101q26 -114 98.5 -204.5t173.5 -121.5v-141z" />
<glyph unicode="&#x205f;" horiz-adv-x="430" />
<glyph unicode="&#x20ac;" horiz-adv-x="903" d="M494 -31q-175 0 -283.5 103.5t-108.5 271.5v162h-96v123h103v104h-103v123h96v164q0 168 108.5 271.5t283.5 103.5q166 0 264 -98t98 -259v-100h-274v111q0 36 -23 58.5t-65 22.5q-43 0 -65.5 -22t-22.5 -59v-193h266v-123h-266v-104h266v-123h-266v-191 q0 -37 22.5 -59.5t65.5 -22.5q42 0 65 23t23 59v111h274v-100q0 -161 -98 -259t-264 -98z" />
<glyph unicode="&#x2122;" horiz-adv-x="1103" d="M442 1235h-135v-412h-141v412h-135v129h411v-129zM1030 823h-133v387l-33 -184l-41 -203h-100l-39 203l-35 182v-385h-127v541h199l41 -190l16 -78l17 78l39 190h196v-541z" />
<glyph unicode="&#x25fc;" horiz-adv-x="1003" d="M0 1004h1004v-1004h-1004v1004z" />
</font>
</defs>
</svg>
